SplineFontDB: 3.0
FontName: Oswald
FullName: Oswald 
FamilyName: Oswald
Weight: Normal
Copyright: Copyright (c) 2011 by vernon adams. All rights reserved.
Version: 1.000
FONDName: Allerton
ItalicAngle: 0
UnderlinePosition: -205
UnderlineWidth: 102
Ascent: 1638
Descent: 410
UFOAscent: 1792
UFODescent: -384
LayerCount: 2
Layer: 0 0 "Back"  1
Layer: 1 0 "Fore"  0
NeedsXUIDChange: 1
FSType: 0
OS2Version: 0
OS2_WeightWidthSlopeOnly: 0
OS2_UseTypoMetrics: 0
CreationTime: 1329948787
ModificationTime: 1329949510
PfmFamily: 0
TTFWeight: 400
TTFWidth: 0
LineGap: 0
VLineGap: 0
Panose: 2 0 5 6 0 0 0 2 0 4
OS2TypoAscent: 2444
OS2TypoAOffset: 0
OS2TypoDescent: -646
OS2TypoDOffset: 0
OS2TypoLinegap: 0
OS2WinAscent: 2444
OS2WinAOffset: 0
OS2WinDescent: -646
OS2WinDOffset: 0
HheadAscent: 2444
HheadAOffset: 0
HheadDescent: -646
HheadDOffset: 0
OS2SubXSize: 1434
OS2SubYSize: 1331
OS2SubXOff: 0
OS2SubYOff: 287
OS2SupXSize: 1434
OS2SupYSize: 1331
OS2SupXOff: 0
OS2SupYOff: 977
OS2StrikeYSize: 102
OS2StrikeYPos: 512
OS2Vendor: 'newt'
OS2CodePages: 00000001.00000000
OS2UnicodeRanges: 8000002f.4000204b.00000000.00000000
Lookup: 258 0 0 "'kern' Horizontal Kerning in Latin lookup 0"  {"'kern' Horizontal Kerning in Latin lookup 0 subtable"  } ['kern' ('latn' <'dflt' > ) ]
DEI: 91125
LangName: 1033 "" "" "" "Newt : Oswald : 18-3-2011" "" "Version 1.000" "" "Oswald is a trademark of vernon adams." "vernon adams" "vernon adams" "" "" "" "" "http://scripts.sil.org/OFL" "" "" "" "Allerton" 
PickledData: "(dp1
S'com.typemytype.robofont.segmentType'
p2
S'curve'
p3
sS'public.glyphOrder'
p4
(S'A'
S'Agrave'
S'Aacute'
S'Acircumflex'
S'Atilde'
S'Adieresis'
S'Aring'
S'Amacron'
S'Abreve'
S'Aogonek'
S'uni0200'
S'uni0202'
S'B'
S'C'
S'Ccedilla'
S'Cacute'
S'Ccircumflex'
S'Cdotaccent'
S'Ccaron'
S'D'
S'Dcaron'
S'E'
S'Egrave'
S'Eacute'
S'Ecircumflex'
S'Edieresis'
S'Emacron'
S'Eogonek'
S'Ecaron'
S'uni0204'
S'uni0206'
S'F'
S'G'
S'Gcircumflex'
S'Gbreve'
S'Gdotaccent'
S'Gcedilla'
S'H'
S'Hcircumflex'
S'I'
S'Igrave'

StartChar: .notdef
Encoding: 65536 -1 0
Width: 748
VWidth: 0
Flags: W
LayerCount: 2
Fore
SplineSet
612 1265 m 2
 612 1321.47882217 568.478822174 1365 512 1365 c 2
 168 1365 l 2
 111.521177826 1365 68 1321.47882217 68 1265 c 2
 68 100 l 2
 68 43.521177826 111.521177826 0 168 0 c 2
 512 0 l 2
 568.478822174 0 612 43.521177826 612 100 c 2
 612 1265 l 2
544 1297 m 1
 544 68 l 1
 136 68 l 1
 136 1297 l 1
 544 1297 l 1
EndSplineSet
EndChar

StartChar: A
Encoding: 65 65 1
Width: 1140
VWidth: 0
Flags: W
LayerCount: 2
Fore
SplineSet
805.047091127 97.7802414077 m 2
 817.442965 39.9328299992 866.83936532 0 926 0 c 2
 982 0 l 2
 1034.96520312 0 1072.14484187 45.9907379359 1061.04709113 97.7802414077 c 2
 718.952908873 1694.21975859 l 2
 706.557035 1752.06717 657.16063468 1792 598 1792 c 2
 542 1792 l 2
 482.83936532 1792 433.442965 1752.06717 421.047091127 1694.21975859 c 2
 78.9529088731 97.7802414077 l 2
 67.8551581291 45.9907379359 105.034796881 0 158 0 c 2
 214 0 l 2
 273.16063468 0 322.557035 39.9328299992 334.952908873 97.7802414077 c 2
 410 448 l 1
 730 448 l 1
 805.047091127 97.7802414077 l 2
570 1408 m 1
 698 640 l 1
 442 640 l 1
 570 1408 l 1
EndSplineSet
EndChar

StartChar: AE
Encoding: 198 198 2
Width: 1408
VWidth: 0
Flags: W
LayerCount: 2
Fore
SplineSet
896 1024 m 1
 896 1600 l 1
 1249 1600 l 2
 1302.65488107 1600 1344 1641.34511893 1344 1695 c 2
 1344 1697 l 2
 1344 1750.65488107 1302.65488107 1792 1249 1792 c 2
 738 1792 l 2
 677.094894425 1792 622.667611966 1756.03712126 598.781610336 1700.01131639 c 2
 -86.7816103362 91.9886836093 l 2
 -106.092482744 46.6940718882 -75.2393302567 0 -26 0 c 2
 29 0 l 2
 89.905105575 0 144.332388034 35.96287874 168.218389664 91.9886836093 c 2
 320 448 l 1
 640 448 l 1
 640 100 l 2
 640 43.521177826 683.521177826 0 740 0 c 2
 1249 0 l 2
 1302.65488107 0 1344 41.3451189347 1344 95 c 2
 1344 97 l 2
 1344 150.654881065 1302.65488107 192 1249 192 c 2
 896 192 l 1
 896 832 l 1
 1121 832 l 2
 1174.65488107 832 1216 873.345118935 1216 927 c 2
 1216 929 l 2
 1216 982.654881065 1174.65488107 1024 1121 1024 c 2
 896 1024 l 1
640 1298 m 1
 640 640 l 1
 393 640 l 1
 640 1298 l 1
EndSplineSet
EndChar

StartChar: Aogonek
Encoding: 260 260 9
Width: 1152
VWidth: 0
Flags: W
LayerCount: 2
Fore
SplineSet
617 -313 m 0
 617 -400 660 -456 745 -481 c 0
 790.715087891 -494.80078125 876.60566175 -502.649638653 1002.02999346 -504.546572208 c 0
 1037.10997071 -505.077126249 1065 -477.605719719 1065 -442.521730618 c 2
 1065 -440.37602703 l 2
 1065 -404.45451832 1037.90103434 -377.0790778 1001.98137617 -376.714461136 c 0
 932.063616276 -376.004733324 888.069824219 -373.928222656 870 -370 c 0
 824 -360 809 -348 809 -309 c 0
 809 -260 832 -204 879 -143 c 0
 919.500000038 -89.9999999506 950.000000057 -50.249999926 970.375000057 -23.6249999256 c 0
 978.737796177 -12.6969289221 964.068823546 17 950.308042507 17 c 2
 912.042895021 17 l 2
 893.459404009 17 832.300838795 -1.27281848108 816.763271332 -11.4674315453 c 0
 736.641113281 -64.0377197266 617 -180.7421875 617 -313 c 0
EndSplineSet
Refer: 1 65 N 1 0 0 1 6 0 2
EndChar

StartChar: B
Encoding: 66 66 12
Width: 1184
VWidth: 0
Flags: W
LayerCount: 2
Fore
SplineSet
128 100 m 2
 128 43.521177826 171.521177826 0 228 0 c 2
 576 0 l 2
 896 0 1088 212 1088 512 c 0
 1088 791 960 896 768 960 c 1
 1000 1024 1058 1152 1058 1344 c 0
 1058 1536 960 1792 512 1792 c 2
 228 1792 l 2
 171.521177826 1792 128 1748.47882217 128 1692 c 2
 128 100 l 2
512 832 m 2
 704 832 832 768 832 512 c 0
 832 256 704 192 512 192 c 2
 384 192 l 1
 384 832 l 1
 512 832 l 2
832 1344 m 0
 832 1057 640 1024 512 1024 c 2
 384 1024 l 1
 384 1600 l 1
 640 1600 832 1600 832 1344 c 0
EndSplineSet
EndChar

StartChar: C
Encoding: 67 67 13
Width: 1216
VWidth: 0
Flags: W
LayerCount: 2
Fore
SplineSet
864 576 m 2
 864 384 800 192 608 192 c 0
 416 192 352 384 352 576 c 2
 352 1216 l 2
 352 1472 416 1600 608 1600 c 0
 773.140625 1600 843.588798523 1505.30754852 860.067360724 1315.92264557 c 0
 865.371221832 1254.96640382 907.875357234 1216 969.061910907 1216 c 2
 1024.3541831 1216 l 2
 1076.43724069 1216 1120.35646237 1264.04101654 1115.69694274 1315.91522752 c 0
 1089.01317134 1612.9843884 936.430908203 1810 608 1810 c 0
 224 1810 96 1536 96 1152 c 2
 96 641 l 2
 96 257 224 -18 608 -18 c 0
 992 -18 1120 256 1120 576 c 2
 1120 609 l 2
 1120 626.426104353 1106.42610435 640 1089 640 c 2
 895 640 l 2
 877.573895647 640 864 626.426104353 864 609 c 2
 864 576 l 2
EndSplineSet
EndChar

StartChar: D
Encoding: 68 68 20
Width: 1120
VWidth: 0
Flags: W
LayerCount: 2
Fore
SplineSet
1024 576 m 2
 1024 1280 l 2
 1024 1664 896 1792 512 1792 c 2
 228 1792 l 2
 171.521177826 1792 128 1748.47882217 128 1692 c 2
 128 100 l 2
 128 43.521177826 171.521177826 0 228 0 c 2
 510 0 l 2
 897 0 1024 192 1024 576 c 2
384 1600 m 1
 507 1600 l 2
 768 1600 768 1472 768 1216 c 2
 768 640 l 2
 768 320 768 192 512 192 c 2
 384 192 l 1
 384 1600 l 1
EndSplineSet
EndChar

StartChar: Dzcaron
Encoding: 453 453 23
Width: 1947
VWidth: 0
Flags: W
LayerCount: 2
Fore
SplineSet
1472.48529157 1707.02941686 m 2
 1446.43694652 1759.12610697 1393.24587025 1792 1335 1792 c 2
 1333 1792 l 2
 1287.54425188 1792 1260.15686302 1747.68627396 1280.48529157 1707.02941686 c 2
 1385.27864045 1497.4427191 l 2
 1412.69795104 1442.60409793 1468.68855763 1408 1530 1408 c 2
 1586 1408 l 2
 1647.31144237 1408 1703.30204896 1442.60409793 1730.72135955 1497.4427191 c 2
 1835.51470843 1707.02941686 l 2
 1855.84313698 1747.68627396 1828.45574812 1792 1783 1792 c 2
 1781 1792 l 2
 1722.75412975 1792 1669.56305348 1759.12610697 1643.51470843 1707.02941686 c 2
 1558 1536 l 1
 1472.48529157 1707.02941686 l 2
EndSplineSet
Refer: 358 122 N 1 0 0 1 1117 0 2
Refer: 20 68 N 1 0 0 1 0 0 2
EndChar

StartChar: E
Encoding: 69 69 24
Width: 896
VWidth: 0
Flags: W
LayerCount: 2
Fore
SplineSet
384 1024 m 1
 384 1600 l 1
 737 1600 l 2
 790.654881065 1600 832 1641.34511893 832 1695 c 2
 832 1697 l 2
 832 1750.65488107 790.654881065 1792 737 1792 c 2
 228 1792 l 2
 171.521177826 1792 128 1748.47882217 128 1692 c 2
 128 100 l 2
 128 43.521177826 171.521177826 0 228 0 c 2
 737 0 l 2
 790.654881065 0 832 41.3451189347 832 95 c 2
 832 97 l 2
 832 150.654881065 790.654881065 192 737 192 c 2
 384 192 l 1
 384 832 l 1
 609 832 l 2
 662.654881065 832 704 873.345118935 704 927 c 2
 704 929 l 2
 704 982.654881065 662.654881065 1024 609 1024 c 2
 384 1024 l 1
EndSplineSet
EndChar

StartChar: Eogonek
Encoding: 280 280 31
Width: 896
VWidth: 0
Flags: W
LayerCount: 2
Fore
SplineSet
380 -313 m 0
 380 -400 423 -456 508 -481 c 0
 553.715087891 -494.80078125 639.60566175 -502.649638653 765.02999346 -504.546572208 c 0
 800.109970707 -505.077126249 828 -477.605719719 828 -442.521730618 c 2
 828 -440.37602703 l 2
 828 -404.45451832 800.901034336 -377.0790778 764.981376171 -376.714461136 c 0
 695.063616276 -376.004733324 651.069824219 -373.928222656 633 -370 c 0
 587 -360 572 -348 572 -309 c 0
 572 -260 595 -204 642 -143 c 0
 682.500000038 -89.9999999506 713.000000057 -50.249999926 733.375000057 -23.6249999256 c 0
 741.737796177 -12.6969289221 727.068823546 17 713.308042507 17 c 2
 675.042895021 17 l 2
 656.459404009 17 595.300838795 -1.27281848108 579.763271332 -11.4674315453 c 0
 499.641113281 -64.0377197266 380 -180.7421875 380 -313 c 0
EndSplineSet
Refer: 24 69 N 1 0 0 1 0 0 2
EndChar

StartChar: Eth
Encoding: 208 208 32
Width: 1152
VWidth: 0
Flags: W
LayerCount: 2
Fore
SplineSet
1024 576 m 2
 1024 1280 l 2
 1024 1664 896 1792 512 1792 c 2
 228 1792 l 2
 171.521177826 1792 128 1748.47882217 128 1692 c 2
 128 1024 l 1
 127 1024 l 2
 91.4183420304 1024 64 996.58165797 64 961 c 2
 64 895 l 2
 64 859.41834203 91.4183420304 832 127 832 c 2
 128 832 l 1
 128 100 l 2
 128 43.521177826 171.521177826 0 228 0 c 2
 510 0 l 2
 897 0 1024 192 1024 576 c 2
384 832 m 1
 385 832 l 2
 420.58165797 832 448 859.41834203 448 895 c 2
 448 961 l 2
 448 996.58165797 420.58165797 1024 385 1024 c 2
 384 1024 l 1
 384 1600 l 1
 507 1600 l 2
 768 1600 768 1472 768 1216 c 2
 768 640 l 2
 768 320 768 192 512 192 c 2
 384 192 l 1
 384 832 l 1
EndSplineSet
EndChar

StartChar: Euro
Encoding: 8364 8364 33
Width: 971
VWidth: 0
Flags: W
LayerCount: 2
Fore
SplineSet
68 827 m 1
 68 674 l 1
 67 674 l 2
 29.1591891434 674 -5.35645614753e-15 644.840810857 -1.23077003314e-14 607 c 2
 1.23077003314e-14 575 l 2
 5.35645614753e-15 537.159189143 29.1591891434 508 67 508 c 2
 68 508 l 1
 76 244 137 -27 494 -27 c 0
 803.4609375 -27 889.552211702 199.461284935 905.840843518 441.059326028 c 0
 909.414817231 494.069613058 865.541954541 541 812.411324777 541 c 2
 767.379826838 541 l 2
 705.868935961 541 663.433531038 502.298988952 657.783286068 441.04815689 c 0
 636.153982475 206.578173906 537.197143555 205 499 205 c 0
 383 205 335 269 324 508 c 1
 436 508 l 2
 482.312634183 508 518 543.687365817 518 590 c 2
 518 592 l 2
 518 638.312634183 482.312634183 674 436 674 c 2
 322 674 l 1
 322 827 l 1
 436 827 l 2
 482.312634183 827 518 862.687365817 518 909 c 2
 518 911 l 2
 518 957.312634183 482.312634183 993 436 993 c 2
 322 993 l 1
 325 1209 345 1309 492 1309 c 0
 538.943359375 1309 623.039653778 1285.68835449 646.669944815 1117.81861133 c 0
 655.643813005 1054.06819261 697.144759762 1018 761.523686416 1018 c 2
 807.086009085 1018 l 2
 859.343590435 1018 902.920074207 1065.85919466 898.035455867 1117.88798777 c 0
 875.906641781 1353.5943234 775.361328125 1536 487 1536 c 0
 176 1536 81 1323 70 993 c 1
 69 993 l 2
 30.0296126999 993 -5.51635036089e-15 962.9703873 -1.26750943712e-14 924 c 2
 1.23077003314e-14 894 l 2
 5.35645614753e-15 856.159189143 29.1591891434 827 67 827 c 2
 68 827 l 1
EndSplineSet
EndChar

StartChar: F
Encoding: 70 70 34
Width: 896
VWidth: 0
Flags: W
LayerCount: 2
Fore
SplineSet
228 1792 m 2
 171.521177826 1792 128 1748.47882217 128 1692 c 2
 128 100 l 2
 128 43.521177826 171.521177826 0 228 0 c 2
 284 0 l 2
 340.478822174 0 384 43.521177826 384 100 c 2
 384 832 l 1
 609 832 l 2
 662.654881065 832 704 873.345118935 704 927 c 2
 704 929 l 2
 704 982.654881065 662.654881065 1024 609 1024 c 2
 384 1024 l 1
 384 1600 l 1
 737 1600 l 2
 790.654881065 1600 832 1641.34511893 832 1695 c 2
 832 1697 l 2
 832 1750.65488107 790.654881065 1792 737 1792 c 2
 228 1792 l 2
EndSplineSet
EndChar

StartChar: G
Encoding: 71 71 35
Width: 1216
VWidth: 0
Flags: W
LayerCount: 2
Fore
SplineSet
608 1810 m 0
 224 1810 96 1536 96 1152 c 2
 96 698 l 2
 96 128 288 -18 608 -18 c 0
 761 -18 833 105 864 192 c 1
 897.958362228 90.1249133148 l 2
 916.058334612 35.8249961631 965.762861681 0 1023 0 c 2
 1025 0 l 2
 1078.65488107 0 1120 41.3451189347 1120 95 c 2
 1120 796 l 2
 1120 852.478822174 1076.47882217 896 1020 896 c 2
 703 896 l 2
 649.345118935 896 608 854.654881065 608 801 c 2
 608 799 l 2
 608 745.345118935 649.345118935 704 703 704 c 2
 864 704 l 1
 864 640 l 2
 864 256 736 192 608 192 c 0
 480 192 352 256 352 640 c 2
 352 1216 l 2
 352 1472 416 1600 608 1600 c 0
 773.140625 1600 843.588798523 1505.30754852 860.067360724 1315.92264557 c 0
 865.371221832 1254.96640382 907.875357234 1216 969.061910907 1216 c 2
 1024.40648601 1216 l 2
 1076.44479422 1216 1120.35788465 1264.07788557 1115.65556328 1315.9033011 c 0
 1086.85729885 1633.29590464 915.137695312 1810 608 1810 c 0
EndSplineSet
EndChar

StartChar: H
Encoding: 72 72 40
Width: 1216
VWidth: 0
Flags: HW
LayerCount: 2
Fore
SplineSet
1088 100 m 2
 1088 1692 l 2
 1088 1760.5413742 1023.97912346 1794.82883931 959.968687749 1794.82883931 c 0
 895.979126868 1794.82883931 832 1760.56373394 832 1692 c 2
 832 1024 l 1
 384 1024 l 1
 384 1692 l 2
 384 1760.5413742 319.979123464 1794.82883931 255.968687749 1794.82883931 c 0
 191.979126868 1794.82883931 128 1760.56373394 128 1692 c 2
 128 100 l 2
 128 31.4586258017 192.020876536 -2.82883930881 256.031312251 -2.82883930881 c 0
 320.020873132 -2.82883930881 384 31.4362660595 384 100 c 2
 384 832 l 1
 832 832 l 1
 832 100 l 2
 832 31.4586258017 896.020876536 -2.82883930881 960.031312251 -2.82883930881 c 0
 1024.02087313 -2.82883930881 1088 31.4362660595 1088 100 c 2
EndSplineSet
EndChar

StartChar: I
Encoding: 73 73 43
Width: 542
VWidth: 0
Flags: W
LayerCount: 2
Fore
SplineSet
296 0 m 2
 352.478822174 0 396 43.521177826 396 100 c 2
 396 1692 l 2
 396 1748.47882217 352.478822174 1792 296 1792 c 2
 240 1792 l 2
 183.521177826 1792 140 1748.47882217 140 1692 c 2
 140 100 l 2
 140 43.521177826 183.521177826 0 240 0 c 2
 296 0 l 2
EndSplineSet
EndChar

StartChar: J
Encoding: 74 74 53
Width: 640
VWidth: 0
Flags: W
LayerCount: 2
Fore
SplineSet
256 448 m 2
 256 240.0625 213.77538681 201.023452759 95.0289709577 193.694100384 c 0
 38.2378949818 190.188800416 -7.03755464009e-15 149.517990242 -1.74512168878e-14 92.8286533384 c 2
 1.15729122519e-14 63 l 2
 5.03666772081e-15 27.4183420304 27.4183420304 0 63 0 c 2
 128 0 l 2
 448 0 512 128 512 448 c 2
 512 1692 l 2
 512 1748.47882217 468.478822174 1792 412 1792 c 2
 356 1792 l 2
 299.521177826 1792 256 1748.47882217 256 1692 c 2
 256 448 l 2
EndSplineSet
EndChar

StartChar: K
Encoding: 75 75 55
Width: 1216
VWidth: 0
Flags: W
LayerCount: 2
Fore
SplineSet
1040.01876581 1704.26288604 m 2
 1062.54151977 1745.44735044 1034.94075579 1792 988 1792 c 2
 868 1792 l 2
 806.688557634 1792 750.697951036 1757.39590207 723.27864045 1702.5572809 c 2
 384 1024 l 1
 384 1692 l 2
 384 1748.47882217 340.478822174 1792 284 1792 c 2
 228 1792 l 2
 171.521177826 1792 128 1748.47882217 128 1692 c 2
 128 100 l 2
 128 43.521177826 171.521177826 0 228 0 c 2
 284 0 l 2
 340.478822174 0 384 43.521177826 384 100 c 2
 384 576 l 1
 512 832 l 1
 796.102092069 93.3345606203 l 2
 817.867514566 36.744462129 871.36854889 0 932 0 c 2
 1052 0 l 2
 1101.50633892 0 1132.73787349 46.6752642333 1113.85238682 92.43786891 c 2
 703 1088 l 1
 1040.01876581 1704.26288604 l 2
EndSplineSet
EndChar

StartChar: L
Encoding: 76 76 56
Width: 896
VWidth: 0
Flags: W
LayerCount: 2
Fore
SplineSet
832 97 m 2
 832 150.654881065 790.654881065 192 737 192 c 2
 384 192 l 1
 384 1692 l 2
 384 1748.47882217 340.478822174 1792 284 1792 c 2
 228 1792 l 2
 171.521177826 1792 128 1748.47882217 128 1692 c 2
 128 100 l 2
 128 43.521177826 171.521177826 0 228 0 c 2
 737 0 l 2
 790.654881065 0 832 41.3451189347 832 95 c 2
 832 97 l 2
EndSplineSet
EndChar

StartChar: M
Encoding: 77 77 61
Width: 1472
VWidth: 0
Flags: HW
LayerCount: 2
Back
SplineSet
1088 1414 m 5
 1088 100 l 6
 1088 31.4586258017 1152.02087654 -2.82883930881 1216.03131225 -2.82883930881 c 4
 1280.02087313 -2.82883930881 1344 31.4362660595 1344 100 c 6
 1344 1692 l 6
 1344 1849.06639204 995.905380729 1823.89835574 971.796206762 1693.67084913 c 6
 736 420 l 5
 500.203793238 1693.67084913 l 6
 476.055566815 1824.10930051 128 1848.89317208 128 1692 c 6
 128 100 l 6
 128 31.4586258017 192.020876536 -2.82883930881 256.031312251 -2.82883930881 c 4
 320.020873132 -2.82883930881 384 31.4362660595 384 100 c 6
 384 1414 l 5
 623.075700845 93.4803086116 l 6
 634.138570308 32.3752405622 685.086884888 1.80094589422 736.028365614 1.80094589422 c 4
 786.945686745 1.80094589422 837.856180504 32.3462470019 848.924299155 93.4803086116 c 6
 1088 1414 l 5
EndSplineSet
Fore
SplineSet
736 480 m 1
 993 1656 l 2
 1013.56347656 1750.09667969 1096 1801 1174 1801 c 0
 1261 1801 1344 1744 1344 1624 c 2
 1344 100 l 2
 1344 31 1287 -3 1231 -3 c 0
 1174 -3 1118 31 1118 100 c 2
 1118 1264 l 1
 849 93 l 2
 835 32 784 2 738 2 c 0
 688 2 637 32 623 93 c 2
 354 1264 l 1
 354 100 l 2
 354 31 298 -3 241 -3 c 0
 185 -3 128 31 128 100 c 2
 128 1624 l 2
 128 1744 211 1801 298 1801 c 0
 376 1801 458.436523438 1750.09667969 479 1656 c 2
 736 480 l 1
EndSplineSet
EndChar

StartChar: N
Encoding: 78 78 62
Width: 1152
VWidth: 0
Flags: W
LayerCount: 2
Fore
SplineSet
1024 1692 m 2
 1024 1748.47882217 980.478822174 1792 924 1792 c 2
 868 1792 l 2
 811.521177826 1792 768 1748.47882217 768 1692 c 2
 768 684 l 1
 355.610786308 1703.92689458 l 2
 333.971956095 1757.44435859 282.726579032 1792 225 1792 c 2
 223 1792 l 2
 169.345118935 1792 128 1750.65488107 128 1697 c 2
 128 100 l 2
 128 43.521177826 171.521177826 0 228 0 c 2
 284 0 l 2
 340.478822174 0 384 43.521177826 384 100 c 2
 384 1192 l 1
 809.720221966 84.0119987267 l 2
 829.291050587 33.0765670311 877.434117482 0 932 0 c 2
 934 0 l 2
 984.830939957 0 1024 39.1690600434 1024 90 c 2
 1024 1692 l 2
EndSplineSet
EndChar

StartChar: O
Encoding: 79 79 67
Width: 1216
VWidth: 0
Flags: W
LayerCount: 2
Fore
SplineSet
608 1810 m 0
 208 1810 96 1536 96 1216 c 2
 96 576 l 2
 96 256 208 -18 608 -18 c 0
 1000 -18 1120 256 1120 576 c 2
 1120 1216 l 2
 1120 1536 1000 1810 608 1810 c 0
608 1600 m 0
 800 1600 864 1472 864 1280 c 2
 864 512 l 2
 864 320 800 192 608 192 c 0
 416 192 352 320 352 512 c 2
 352 1280 l 2
 352 1472 416 1600 608 1600 c 0
EndSplineSet
EndChar

StartChar: OE
Encoding: 338 338 68
Width: 1664
VWidth: 0
Flags: W
LayerCount: 2
Fore
SplineSet
1152 1024 m 1
 1152 1600 l 1
 1505 1600 l 2
 1558.65488107 1600 1600 1641.34511893 1600 1695 c 2
 1600 1697 l 2
 1600 1750.65488107 1558.65488107 1792 1505 1792 c 2
 996 1792 l 2
 939.521177826 1792 896 1748.47882217 896 1692 c 2
 896 1664 l 1
 865 1723 794 1810 640 1810 c 0
 240 1810 128 1536 128 1216 c 2
 128 576 l 2
 128 256 240 -18 640 -18 c 0
 793 -18 864 67 896 128 c 1
 896 100 l 2
 896 43.521177826 939.521177826 0 996 0 c 2
 1505 0 l 2
 1558.65488107 0 1600 41.3451189347 1600 95 c 2
 1600 97 l 2
 1600 150.654881065 1558.65488107 192 1505 192 c 2
 1152 192 l 1
 1152 832 l 1
 1377 832 l 2
 1430.65488107 832 1472 873.345118935 1472 927 c 2
 1472 929 l 2
 1472 982.654881065 1430.65488107 1024 1377 1024 c 2
 1152 1024 l 1
640 1600 m 0
 827 1600 893 1478 896 1294 c 1
 896 512 l 2
 896 320 832 192 640 192 c 0
 448 192 384 320 384 512 c 2
 384 1280 l 2
 384 1472 448 1600 640 1600 c 0
EndSplineSet
EndChar

StartChar: Oslash
Encoding: 216 216 74
Width: 1280
VWidth: 0
Flags: W
LayerCount: 2
Fore
SplineSet
916 1745 m 1
 944.638120336 1858.90161497 l 2
 952.658770652 1890.80192873 929.893173294 1920 897 1920 c 2
 895 1920 l 2
 857.503877525 1920 825.814401124 1895.25760449 816.720255623 1858.88102249 c 2
 800 1792 l 1
 753 1804 699 1810 640 1810 c 0
 240 1810 128 1536 128 1216 c 2
 128 576 l 2
 128 363 178 170 329 65 c 1
 363 44 l 1
 335.279744377 -66.8810224908 l 2
 327.298320878 -98.8067164895 350.091747868 -128 383 -128 c 2
 385 -128 l 2
 422.496122475 -128 454.185598876 -103.257604494 463.279744377 -66.8810224908 c 2
 480 0 l 1
 527 -12 581 -18 640 -18 c 0
 1032 -18 1152 256 1152 576 c 2
 1152 1216 l 2
 1152 1444 1094 1640 916 1745 c 1
640 1600 m 0
 681 1600 717 1594 747 1583 c 1
 427 300 l 1
 397 352 384 426 384 512 c 2
 384 1280 l 2
 384 1472 448 1600 640 1600 c 0
532 209 m 1
 853 1492 l 1
 883 1436 896 1365 896 1280 c 2
 896 512 l 2
 896 320 832 192 640 192 c 0
 598 192 562 198 532 209 c 1
EndSplineSet
EndChar

StartChar: P
Encoding: 80 80 76
Width: 1088
VWidth: 0
Flags: W
LayerCount: 2
Fore
SplineSet
128 100 m 2
 128 43.521177826 171.521177826 0 228 0 c 2
 284 0 l 2
 340.478822174 0 384 43.521177826 384 100 c 2
 384 832 l 1
 576 832 l 2
 832 832 1024 960 1024 1280 c 0
 1024 1600 896 1792 576 1792 c 2
 228 1792 l 2
 171.521177826 1792 128 1748.47882217 128 1692 c 2
 128 100 l 2
384 1600 m 1
 448 1600 l 2
 768 1600 768 1472 768 1280 c 0
 768 1088 704 1024 448 1024 c 2
 384 1024 l 1
 384 1600 l 1
EndSplineSet
EndChar

StartChar: Q
Encoding: 81 81 77
Width: 1216
VWidth: 0
Flags: W
LayerCount: 2
Fore
SplineSet
608 1810 m 0
 208 1810 96 1536 96 1216 c 2
 96 576 l 2
 96 256 208 -18 608 -18 c 0
 656 -18 700 -14 741 -6 c 1
 810.191894531 -88.44140625 879.925608695 -150.293666482 962.165885097 -177.199089567 c 0
 1003.02345281 -190.565899527 1056 -152.157943334 1056 -112.897509754 c 2
 1056 -131.992909654 l 2
 1056 -41.2586223773 1043.44548609 -19.920020585 964.133102417 24.1510207355 c 0
 943.596450806 35.5625 926.21875 49.78125 912 64 c 1
 1067 171 1120 360 1120 576 c 2
 1120 1216 l 2
 1120 1536 1000 1810 608 1810 c 0
608 1600 m 0
 800 1600 864 1472 864 1280 c 2
 864 512 l 2
 864 320 800 192 608 192 c 0
 416 192 352 320 352 512 c 2
 352 1280 l 2
 352 1472 416 1600 608 1600 c 0
EndSplineSet
EndChar

StartChar: R
Encoding: 82 82 78
Width: 1152
VWidth: 0
Flags: W
LayerCount: 2
Fore
SplineSet
800 896 m 1
 888 927 1024 1028 1024 1312 c 0
 1024 1600 896 1792 448 1792 c 2
 228 1792 l 2
 171.521177826 1792 128 1748.47882217 128 1692 c 2
 128 100 l 2
 128 43.521177826 171.521177826 0 228 0 c 2
 284 0 l 2
 340.478822174 0 384 43.521177826 384 100 c 2
 384 832 l 1
 576 832 l 1
 804.381744246 95.5131348354 l 2
 822.170346141 38.1483411262 873.940413632 0 934 0 c 2
 988 0 l 2
 1038.97797647 0 1072.99881076 46.6703665328 1057.39908196 95.2028561285 c 2
 800 896 l 1
448 1600 m 2
 640 1600 768 1536 768 1312 c 0
 768 1088 640 1024 448 1024 c 2
 384 1024 l 1
 384 1600 l 1
 448 1600 l 2
EndSplineSet
EndChar

StartChar: S
Encoding: 83 83 82
Width: 1132
VWidth: 0
Flags: W
LayerCount: 2
Fore
SplineSet
1056 401 m 0
 1056 577 962 766 800 896 c 2
 480 1152 l 2
 394 1221 352 1317 352 1405 c 0
 352 1510 408 1600 544 1600 c 0
 698.926269531 1600 762.408015013 1489.33465242 786.898085732 1379.13287525 c 0
 800.22867057 1319.14717098 845.261717182 1291.3154293 904.876079519 1306.21901988 c 2
 966.560287675 1321.64007192 l 2
 1016.1639202 1334.04098005 1052.41400388 1392.9758117 1041.10928474 1442.84069119 c 0
 1030.28523421 1490.58535147 1014.20361328 1535.59326172 992 1577 c 0
 928 1693 796 1810 544 1810 c 0
 251 1810 95 1608 95 1378 c 0
 95 1230 156 1065 288 960 c 2
 608 704 l 2
 736 601 800 512 800 384 c 0
 800 256 736 192 608 192 c 0
 445.699707031 192 383.461042583 336.605192184 361.635215958 476.434257241 c 0
 352.62371562 534.167221434 306.635998922 564.65899973 249.948601897 550.487150474 c 2
 186.052509899 534.513127475 l 2
 135.5337275 521.883431875 98.0262680654 463.837011999 107.270639802 412.590566491 c 0
 118.083274603 352.650408745 135.845214844 297.268066406 160 247 c 0
 224 114 352 -18 608 -18 c 0
 914 -18 1056 181 1056 401 c 0
EndSplineSet
EndChar

StartChar: T
Encoding: 84 84 87
Width: 1024
VWidth: 0
Flags: W
LayerCount: 2
Fore
SplineSet
64 1664 m 2
 64 1607.52117783 107.521177826 1564 164 1564 c 2
 384 1564 l 1
 384 100 l 2
 384 43.521177826 427.521177826 0 484 0 c 2
 540 0 l 2
 596.478822174 0 640 43.521177826 640 100 c 2
 640 1564 l 1
 860 1564 l 2
 916.478822174 1564 960 1607.52117783 960 1664 c 2
 960 1692 l 2
 960 1748.47882217 916.478822174 1792 860 1792 c 2
 164 1792 l 2
 107.521177826 1792 64 1748.47882217 64 1692 c 2
 64 1664 l 2
EndSplineSet
EndChar

StartChar: Thorn
Encoding: 222 222 90
Width: 952
VWidth: 0
Flags: W
LayerCount: 2
Fore
SplineSet
72 100 m 2
 72 43.521177826 115.521177826 0 172 0 c 2
 226 0 l 2
 282.478822174 0 326 43.521177826 326 100 c 2
 326 384 l 1
 457 384 l 2
 466 384 476 383 485 383 c 0
 759 383 911 539 911 826 c 0
 911 1111 779 1281 504 1281 c 2
 324 1281 l 1
 324 1436 l 2
 324 1492.47882217 280.478822174 1536 224 1536 c 2
 172 1536 l 2
 115.521177826 1536 72 1492.47882217 72 1436 c 2
 72 100 l 2
324 1058 m 1
 401 1058 l 2
 577 1058 649 999 649 828 c 0
 649 632 539 601 369 601 c 2
 324 601 l 1
 324 1058 l 1
EndSplineSet
EndChar

StartChar: U
Encoding: 85 85 91
Width: 1280
VWidth: 0
Flags: W
LayerCount: 2
Fore
SplineSet
1152 640 m 2
 1152 1692 l 2
 1152 1748.47882217 1108.47882217 1792 1052 1792 c 2
 996 1792 l 2
 939.521177826 1792 896 1748.47882217 896 1692 c 2
 896 640 l 2
 896 448 896 192 640 192 c 0
 384 192 384 448 384 640 c 2
 384 1692 l 2
 384 1748.47882217 340.478822174 1792 284 1792 c 2
 228 1792 l 2
 171.521177826 1792 128 1748.47882217 128 1692 c 2
 128 640 l 2
 128 320 192 -19 640 -19 c 0
 1088 -19 1152 320 1152 640 c 2
EndSplineSet
EndChar

StartChar: V
Encoding: 86 86 99
Width: 1152
VWidth: 0
Flags: W
LayerCount: 2
Fore
SplineSet
509 832 m 1
 339.316703392 1693.88341134 l 2
 327.924275617 1751.74971115 278.977080838 1792 220 1792 c 2
 164 1792 l 2
 111.034796881 1792 73.8551581291 1746.00926206 84.9529088731 1694.21975859 c 2
 427.047091127 97.7802414077 l 2
 439.442965 39.9328299992 488.83936532 0 548 0 c 2
 604 0 l 2
 663.16063468 0 712.557035 39.9328299992 724.952908873 97.7802414077 c 2
 1067.04709113 1694.21975859 l 2
 1078.14484187 1746.00926206 1040.96520312 1792 988 1792 c 2
 932 1792 l 2
 873.022919162 1792 824.075724383 1751.74971115 812.683296608 1693.88341134 c 2
 643 832 l 1
 575 384 l 1
 509 832 l 1
EndSplineSet
EndChar

StartChar: W
Encoding: 87 87 100
Width: 1664
VWidth: 0
Flags: W
LayerCount: 2
Fore
SplineSet
576 960 m 1
 513 448 l 1
 448 960 l 1
 335.205718425 1693.16283023 l 2
 326.310864004 1750.97938397 278.496771886 1792 220 1792 c 2
 164 1792 l 2
 110.373158358 1792 72.1519671163 1746.34898415 81.5790638484 1693.55724245 c 2
 366.420936152 98.4427575508 l 2
 376.753452773 40.5806644714 425.222600302 0 484 0 c 2
 540 0 l 2
 598.496771886 0 646.310864004 41.0206160292 655.205718425 98.8371697651 c 2
 768 832 l 1
 832 1344 l 1
 896 832 l 1
 1008.79428157 98.8371697651 l 2
 1017.689136 41.0206160292 1065.50322811 0 1124 0 c 2
 1180 0 l 2
 1238.7773997 0 1287.24654723 40.5806644714 1297.57906385 98.4427575508 c 2
 1582.42093615 1693.55724245 l 2
 1591.84803288 1746.34898415 1553.62684164 1792 1500 1792 c 2
 1444 1792 l 2
 1385.50322811 1792 1337.689136 1750.97938397 1328.79428157 1693.16283023 c 2
 1216 960 l 1
 1151 448 l 1
 1088 960 l 1
 975.205718425 1693.16283023 l 2
 966.310864004 1750.97938397 918.496771886 1792 860 1792 c 2
 804 1792 l 2
 745.503228114 1792 697.689135996 1750.97938397 688.794281575 1693.16283023 c 2
 576 960 l 1
EndSplineSet
EndChar

StartChar: X
Encoding: 88 88 101
Width: 1152
VWidth: 0
Flags: W
LayerCount: 2
Fore
SplineSet
984 0 m 2
 1034.65067421 0 1068.16911405 46.7411917465 1051.92076549 94.7149550655 c 2
 768 933 l 1
 1053.09097602 1698.29108876 l 2
 1070.54548801 1745.14554438 1038 1792 988 1792 c 2
 932 1792 l 2
 871.518583758 1792 818.494798138 1754.86069488 797.825693691 1698.02065765 c 2
 576 1088 l 1
 354.174306309 1698.02065765 l 2
 333.505201862 1754.86069488 280.481416242 1792 220 1792 c 2
 164 1792 l 2
 113.949232285 1792 81.3657589396 1745.16671886 98.7668185175 1698.23823631 c 2
 384 929 l 1
 98.3855620708 94.6106514583 l 2
 82.0005909866 46.7438648634 115.40655639 0 166 0 c 2
 222 0 l 2
 282.228856761 0 334.488206083 37.7596152439 353.400168731 94.9422424618 c 2
 576 768 l 1
 798.599831269 94.9422424618 l 2
 817.511793917 37.7596152439 869.771143239 0 930 0 c 2
 984 0 l 2
EndSplineSet
EndChar

StartChar: Y
Encoding: 89 89 102
Width: 1082
VWidth: 0
Flags: W
LayerCount: 2
Fore
SplineSet
669 576 m 1
 1022.88686321 1696.64173349 l 2
 1038.2662004 1745.34296793 1004.07185379 1792 953 1792 c 2
 897 1792 l 2
 837.151446664 1792 785.969549286 1753.3934225 769.52788721 1695.84760524 c 2
 541 896 l 1
 312.47211279 1695.84760524 l 2
 296.030450714 1753.3934225 244.848553336 1792 185 1792 c 2
 129 1792 l 2
 77.928146213 1792 43.7337995998 1745.34296793 59.1131367937 1696.64173349 c 2
 413 576 l 1
 413 100 l 2
 413 43.521177826 456.521177826 0 513 0 c 2
 569 0 l 2
 625.478822174 0 669 43.521177826 669 100 c 2
 669 576 l 1
EndSplineSet
EndChar

StartChar: Z
Encoding: 90 90 105
Width: 960
VWidth: 0
Flags: W
LayerCount: 2
Fore
SplineSet
896 1697 m 2
 896 1750.65488107 854.654881065 1792 801 1792 c 2
 223 1792 l 2
 169.345118935 1792 128 1750.65488107 128 1697 c 2
 128 1695 l 2
 128 1641.34511893 169.345118935 1600 223 1600 c 2
 640 1600 l 1
 99.9701203434 279.92696084 l 2
 78.6833566908 227.892649689 64 153.220066202 64 97 c 2
 64 95 l 2
 64 41.3451189347 105.345118935 0 159 0 c 2
 801 0 l 2
 854.654881065 0 896 41.3451189347 896 95 c 2
 896 97 l 2
 896 150.654881065 854.654881065 192 801 192 c 2
 320 192 l 1
 860.029879657 1512.07303916 l 2
 881.316643309 1564.10735031 896 1638.7799338 896 1695 c 2
 896 1697 l 2
EndSplineSet
EndChar

StartChar: a
Encoding: 97 97 109
Width: 973
VWidth: 0
Flags: W
PickledData: "(dp1
S'com.typemytype.robofont.layerData'
p2
(dp3
s."
LayerCount: 2
Fore
SplineSet
623 172 m 1
 623 169 636 0 742 0 c 2
 792.288974927 0 l 2
 849.894141772 0 885.491964419 40.9961104686 877.412154309 98.0318178443 c 0
 869.314210653 155.195530653 864 227.146484375 864 320 c 2
 864 896 l 2
 864 1088 754 1298 480 1298 c 0
 281.276367188 1298 143.450471923 1182.07418635 106.11592851 995.472403984 c 0
 96.7118259867 948.469758926 139.723532447 896 187.657714266 896 c 2
 237.607113705 896 l 2
 306.444666242 896 346.223335035 928.300994621 360.353920066 995.672614803 c 0
 379.71875 1088 429.859375 1088 480 1088 c 0
 544 1088 608 1088 608 896 c 2
 608 794 l 1
 137 610 96 479 96 283 c 0
 96 127 224 -18 352 -18 c 0
 480 -18 559 44 623 172 c 1
608 650 m 1
 608 286 l 1
 580 245 531 192 480 192 c 0
 416 192 352 224 352 351 c 0
 352 466 436 536 608 650 c 1
EndSplineSet
EndChar

StartChar: acute
Encoding: 180 180 113
Width: 640
VWidth: 0
Flags: W
LayerCount: 2
Fore
SplineSet
356 1792 m 2
 295.750380717 1792 243.429825908 1754.28947772 224.377223398 1697.13167019 c 2
 147.922349259 1467.76704778 l 2
 137.827141366 1437.4814241 159.076149604 1408 191 1408 c 2
 193 1408 l 2
 232.00327664 1408 269.310987156 1427.96648073 290.946112362 1460.41916854 c 2
 456.529980377 1708.79497057 l 2
 481.327019106 1745.99052866 456.703497308 1792 412 1792 c 2
 356 1792 l 2
EndSplineSet
EndChar

StartChar: ae
Encoding: 230 230 115
Width: 1536
VWidth: 0
Flags: W
LayerCount: 2
Fore
SplineSet
426 -19 m 0
 531 -19 651 25 768 128 c 1
 799 67 870 -18 1022 -18 c 0
 1250.54553223 -18 1377.07491313 97.4601402581 1402.29140744 348.07183322 c 0
 1407.45657678 399.405369814 1363.50615297 448 1311.91341168 448 c 2
 1257.37626726 448 l 2
 1196.90030115 448 1154.2002504 408.359665667 1149.71195095 348.050481915 c 0
 1143.22219563 260.84777832 1118.34179688 192 1023 192 c 0
 921 192 899 314 896 462 c 1
 896 640 l 1
 1393 640 l 2
 1400.80099666 640 1407 646.199003341 1407 654 c 2
 1407 670 l 2
 1407 1152 1279 1298 1023 1298 c 0
 837 1298 771 1159 769 1152 c 1
 767 1159 698 1298 512 1298 c 0
 313.276367188 1298 175.450471923 1182.07418635 138.11592851 995.472403984 c 0
 128.711825987 948.469758926 171.723532447 896 219.657714266 896 c 2
 269.607113705 896 l 2
 338.444666242 896 378.223335035 928.300994621 392.353920066 995.672614803 c 0
 411.71875 1088 461.859375 1088 512 1088 c 0
 576 1088 640 1088 640 896 c 2
 640 804 l 1
 169 620 128 479 128 283 c 0
 128 96 258 -19 426 -19 c 0
639 639 m 1
 640 470 655 342 683 246 c 1
 647 228 560 192 512 192 c 0
 448 192 384 224 384 351 c 0
 384 464 466 527 639 639 c 1
1151 768 m 1
 896 768 l 1
 896 850 l 1
 899 965 921 1088 1023 1088 c 0
 1154 1088 1151 896 1151 768 c 1
EndSplineSet
EndChar

StartChar: ampersand
Encoding: 38 38 118
Width: 1344
VWidth: 0
Flags: W
LayerCount: 2
Fore
SplineSet
896 157 m 1
 964.930664062 89.5205078125 1035.44075298 27.8322401047 1117.46234014 -0.942602752708 c 0
 1157.242831 -14.8984089374 1216 26.7564244707 1216 68.9138909423 c 2
 1216 113.106301868 l 2
 1216 218.233648363 1209.07268718 231.295612318 1122.043741 290.267821932 c 0
 1093.92577195 309.321008682 1070.40771484 332.619628906 1057 350 c 1
 1113.1796875 435.830078125 1178.49177456 602.025272369 1204.48103336 732.673076976 c 0
 1213.7476049 779.256061036 1170.46235603 832 1122.96663252 832 c 2
 1061.37328325 832 l 2
 1002.04142546 832 955.461725244 791.62322216 947.039864647 732.892126367 c 0
 932.3230474 630.262215376 916.843261719 558.318359375 896 512 c 1
 640 896 l 1
 780 1036 960 1286 960 1472 c 0
 960 1675 788 1810 576 1810 c 0
 333 1810 192 1629 192 1408 c 0
 192 1258 303 1060 384 896 c 1
 207 741 128 550 128 384 c 0
 128 160 267 -18 512 -18 c 0
 663 -18 807 44 896 157 c 1
448 1408 m 0
 448 1508 491 1600 576 1600 c 0
 656 1600 704 1548 704 1472 c 0
 704 1346 610 1105 545 1024 c 1
 497 1141 448 1316 448 1408 c 0
613 503 m 1
 736 320 l 1
 693 266 615 192 512 192 c 0
 419 192 384 281 384 384 c 0
 384 494 425 629 481 704 c 1
 486 691 552 597 613 503 c 1
EndSplineSet
EndChar

StartChar: asciicircum
Encoding: 94 94 121
Width: 896
VWidth: 0
Flags: W
LayerCount: 2
Fore
SplineSet
101.139067635 988.847669089 m 2
 82.6678023131 942.669505783 114.264596021 896 164 896 c 2
 220 896 l 2
 279.8286331 896 330.956141719 934.648436931 347.273509877 992.208916733 c 2
 447 1344 l 1
 548.329635289 992.09553016 l 2
 564.895432322 934.564700152 616.131627442 896 676 896 c 2
 732 896 l 2
 781.735403979 896 813.332197687 942.669505783 794.860932365 988.847669089 c 2
 613.139067635 1443.15233091 l 2
 590.582229982 1499.54442504 536.736144145 1536 476 1536 c 2
 420 1536 l 2
 359.263855855 1536 305.417770018 1499.54442504 282.860932365 1443.15233091 c 2
 101.139067635 988.847669089 l 2
EndSplineSet
EndChar

StartChar: asciitilde
Encoding: 126 126 122
Width: 960
VWidth: 0
Flags: W
LayerCount: 2
Fore
SplineSet
127 846 m 0
 127 842.8828125 127 840.162231445 127.088306904 837.92656374 c 0
 127.189157158 835.373335772 130.6983672 832 133.25358614 832 c 2
 229.519373251 832 l 2
 261.789334839 832 275.4067203 841.522646914 286.480609505 871.833031253 c 0
 293.790220261 891.840194702 308.262695312 899 329 899 c 0
 393 899 500 812 613 812 c 0
 809 812 833 1016 833 1074 c 0
 833 1077.08984375 832.805160522 1079.79000854 832.587488294 1082.01449102 c 0
 832.239701047 1085.56867265 829.558848581 1088 825.987691487 1088 c 2
 734.417437884 1088 l 2
 699.048862404 1088 685.989722923 1079.30446637 672.349867873 1046.67180657 c 0
 664.043048859 1026.79816437 648.404296875 1019 628 1019 c 0
 564 1019 450 1105 347 1105 c 0
 151 1105 127 905 127 846 c 0
EndSplineSet
EndChar

StartChar: asterisk
Encoding: 42 42 123
Width: 896
VWidth: 0
Flags: W
LayerCount: 2
Fore
SplineSet
578.287303861 982.27311555 m 2
 599.707906846 938.962845282 650.563140487 923.87291213 692.139524611 948.490507993 c 2
 693.860475389 949.509492007 l 2
 735.340643091 974.07011762 746.338451832 1025.88427126 718.411453078 1065.17690904 c 2
 597 1236 l 1
 774.602914231 1304.41513038 l 2
 819.509125287 1321.71363192 840.904413266 1369.56376171 823.854304023 1414.56486971 c 2
 823.145695977 1416.43513029 l 2
 806.73735649 1459.74238697 758.834955451 1477.66753707 718.027129728 1455.77065498 c 2
 547 1364 l 1
 566.85927486 1569.44077441 l 2
 571.886044891 1621.4418437 533.243464894 1664 481 1664 c 2
 479 1664 l 2
 426.705544408 1664 387.968602822 1621.47925548 392.828297902 1569.41109391 c 2
 412 1364 l 1
 241.904413599 1455.64333635 l 2
 201.155364259 1477.59792619 153.253984545 1459.71953298 136.854304023 1416.43513029 c 2
 136.145695977 1414.56486971 l 2
 119.110411171 1369.6028885 140.574847627 1321.81581686 185.500393349 1304.68467491 c 2
 363 1237 l 1
 241.449946728 1065.27521544 l 2
 213.583728752 1025.9060819 224.635925356 974.083991565 266.139524611 949.509492007 c 2
 267.860475389 948.490507993 l 2
 309.436859513 923.87291213 360.292093154 938.962845282 381.712696139 982.27311555 c 2
 480 1181 l 1
 578.287303861 982.27311555 l 2
EndSplineSet
EndChar

StartChar: at
Encoding: 64 64 124
Width: 1782
VWidth: 0
Flags: W
LayerCount: 2
Fore
SplineSet
884 502 m 0
 820 502 768 553 768 693 c 0
 768 851 775 996 904 996 c 0
 946 996 955 966 958 945 c 1
 958 542 l 1
 955 524 942 502 884 502 c 0
1286 292 m 0
 1350 292 1654 320 1654 768 c 0
 1654 1280 1376 1572 896 1572 c 0
 445 1572 128 1280 128 768 c 0
 128 128 406 -128 958 -128 c 0
 1052.125 -128 1155.44261265 -114.481451988 1250.05924422 -96.9876059517 c 0
 1300.21144743 -87.7148712663 1327.44822897 -34.1473710404 1305.39323768 11.839632068 c 2
 1299.17518585 24.8049316251 l 2
 1272.12865929 81.1998167977 1218.53336902 106.541748438 1157.78446189 91.6599489829 c 0
 1092.58779126 75.6885706782 1022.47998047 64 958 64 c 0
 702 64 384 128 384 768 c 0
 384 1280 702 1380 896 1380 c 0
 1215 1380 1398 1221 1398 768 c 0
 1398 576 1343 502 1282 502 c 0
 1213 502 1214 569 1214 620 c 2
 1214 1088 l 2
 1214 1144.47882217 1170.47882217 1188 1114 1188 c 2
 1058 1188 l 2
 1001.52117783 1188 958 1144.47882217 958 1088 c 2
 958 1061 l 1
 956 1114 929 1197 816 1197 c 0
 656 1197 512 1038 512 693 c 0
 512 541 591 292 840 292 c 0
 935 292 987 368 1011 420 c 1
 1043 368 1125 292 1286 292 c 0
EndSplineSet
EndChar

StartChar: b
Encoding: 98 98 126
Width: 1056
VWidth: 0
Flags: HWO
PickledData: "(dp1
S'com.typemytype.robofont.layerData'
p2
(dp3
s."
LayerCount: 2
Fore
SplineSet
556 1102 m 0
 704 1102 704 937.187989556 704 705 c 0
 704 316.573099415 677.9375 182 565 182 c 4
 526.348958333 182 455.645833333 193.25 384 232 c 1
 384 1027 l 1
 431.479166667 1074.05882353 498.666666667 1102 556 1102 c 0
128 1692 m 2
 128 100 l 2
 128 31.5299643373 192.02361433 -2.72401347619 256.035418227 -2.72401347619 c 0
 320.023609974 -2.72401347619 384 31.5046983435 384 100 c 2
 384 116 l 1
 457.000030518 22.7113037109 542 -18 640 -18 c 0
 889 -18 960 345 960 577 c 0
 960 1104 883 1298 644 1298 c 0
 593 1298 493.000030518 1300.71130371 384 1153 c 1
 384 1692 l 2
 384 1760.58575264 319.989756476 1794.8868644 255.984635329 1794.8868644 c 0
 191.989757296 1794.8868644 128 1760.59673058 128 1692 c 2
EndSplineSet
EndChar

StartChar: backslash
Encoding: 92 92 127
Width: 576
VWidth: 0
Flags: W
LayerCount: 2
Fore
SplineSet
164 1792 m 2
 109.176617711 1792 68.8128061999 1747.08047547 74.6533123634 1692.56908461 c 2
 245.346687637 99.430915392 l 2
 251.518460202 41.8277047781 298.067102182 0 356 0 c 2
 412 0 l 2
 466.823382289 0 507.1871938 44.9195245327 501.346687637 99.430915392 c 2
 330.653312363 1692.56908461 l 2
 324.481539798 1750.17229522 277.932897818 1792 220 1792 c 2
 164 1792 l 2
EndSplineSet
EndChar

StartChar: bar
Encoding: 124 124 128
Width: 384
VWidth: 0
Flags: W
LayerCount: 2
Fore
SplineSet
225 -128 m 2
 278.654881065 -128 320 -86.6548810653 320 -33 c 2
 320 1825 l 2
 320 1878.65488107 278.654881065 1920 225 1920 c 2
 223 1920 l 2
 169.345118935 1920 128 1878.65488107 128 1825 c 2
 128 -33 l 2
 128 -86.6548810653 169.345118935 -128 223 -128 c 2
 225 -128 l 2
EndSplineSet
EndChar

StartChar: braceleft
Encoding: 123 123 129
Width: 704
VWidth: 0
Flags: W
LayerCount: 2
Fore
SplineSet
545.125579536 1658.65516806 m 0
 608.809428928 1670.8172977 640 1708.52823911 640 1771.77396918 c 2
 640 1763.66436535 l 2
 640 1814.99521656 596.328356548 1856.57598644 545.059220169 1854.05965179 c 0
 315.002963617 1842.76828682 192 1772.67431641 192 1408 c 0
 192 1223.48095703 182.849965811 1121.67822313 152.81444245 1070.04251751 c 0
 43.1836366279 881.570222577 64 958.757224125 64 790.356767676 c 2
 64 1016.47225872 l 2
 64 835.208294727 47.0753529779 883.342302797 160.520126128 741.967241041 c 0
 184.44287014 712.154678345 192 648.3515625 192 512 c 0
 192 97.701171875 315.036893129 -34.4748439789 545.154408841 -59.3532726853 c 0
 593.708265968 -64.602519659 640 -23.0457233843 640 25.3927956638 c 2
 640 -4.52715141415 l 2
 640 81.5028646388 623.692402062 107.54481689 546.29687486 145.109375068 c 0
 471.062499971 181.625000126 448 283.250000142 448 512 c 0
 448 771 332 864 256 896 c 1
 330 931 448 1043 448 1408 c 0
 448 1593.03125 470.822891235 1644.46508789 545.125579536 1658.65516806 c 0
EndSplineSet
EndChar

StartChar: braceright
Encoding: 125 125 130
Width: 704
VWidth: 0
Flags: W
LayerCount: 2
Fore
SplineSet
448 896 m 1
 370 863 256 768 256 512 c 0
 256 283.250000142 232.937500029 181.625000126 157.70312514 145.109375068 c 0
 78.8739180442 106.848968516 64 83.096490378 64 4.62978957977 c 2
 64 25.7910622969 l 2
 64 -22.8505246027 110.485801959 -64.5815386178 158.845591159 -59.3532726853 c 0
 388.963106871 -34.4748439789 512 97.701171875 512 512 c 0
 512 648.3515625 519.55712986 712.154678345 543.479873872 741.967241041 c 0
 653.937294531 879.61945924 640 839.981536713 640 989.25078001 c 2
 640 740.718879927 l 2
 640 974.938572235 668.952428793 867.583068967 551.18555755 1070.04251751 c 0
 521.150034189 1121.67822313 512 1223.48095703 512 1408 c 0
 512 1772.67431641 388.997036383 1842.76828682 158.940779831 1854.05965179 c 0
 107.646345086 1856.57722811 64 1815.02054537 64 1763.71942941 c 2
 64 1773.3630297 l 2
 64 1709.05939129 95.7122942843 1670.71766074 158.874420464 1658.65516806 c 0
 233.177108765 1644.46508789 256 1593.03125 256 1408 c 0
 256 1047 371 932 448 896 c 1
EndSplineSet
EndChar

StartChar: bracketleft
Encoding: 91 91 131
Width: 768
VWidth: 0
Flags: W
LayerCount: 2
Fore
SplineSet
577 -64 m 2
 612.58165797 -64 640 -36.5816579696 640 -1 c 2
 640 1 l 2
 640 36.5816579696 612.58165797 64 577 64 c 2
 384 64 l 1
 384 1728 l 1
 577 1728 l 2
 612.58165797 1728 640 1755.41834203 640 1791 c 2
 640 1793 l 2
 640 1828.58165797 612.58165797 1856 577 1856 c 2
 228 1856 l 2
 171.521177826 1856 128 1812.47882217 128 1756 c 2
 128 36 l 2
 128 -20.478822174 171.521177826 -64 228 -64 c 2
 577 -64 l 2
EndSplineSet
EndChar

StartChar: bracketright
Encoding: 93 93 132
Width: 768
VWidth: 0
Flags: W
LayerCount: 2
Fore
SplineSet
191 1856 m 2
 155.41834203 1856 128 1828.58165797 128 1793 c 2
 128 1791 l 2
 128 1755.41834203 155.41834203 1728 191 1728 c 2
 384 1728 l 1
 384 64 l 1
 191 64 l 2
 155.41834203 64 128 36.5816579696 128 1 c 2
 128 -1 l 2
 128 -36.5816579696 155.41834203 -64 191 -64 c 2
 540 -64 l 2
 596.478822174 -64 640 -20.478822174 640 36 c 2
 640 1756 l 2
 640 1812.47882217 596.478822174 1856 540 1856 c 2
 191 1856 l 2
EndSplineSet
EndChar

StartChar: breve
Encoding: 728 728 133
Width: 768
VWidth: 0
Flags: W
LayerCount: 2
Fore
SplineSet
699.494575718 1697.11281851 m 0
 704.502147838 1745.9621567 662.942408661 1792 614.221512094 1792 c 2
 619.227265133 1792 l 2
 554.986217488 1792 516.700299662 1760.34303628 504.63160175 1697.24581975 c 0
 486.03125 1600 435.015625 1600 384 1600 c 0
 332.984375 1600 281.96875 1600 263.36839825 1697.24581975 c 0
 251.207316842 1760.82603299 213.505535028 1792 150.244626072 1792 c 2
 154.16292323 1792 l 2
 105.244868414 1792 63.5169499547 1745.77585593 68.5054242821 1697.11281851 c 0
 98.1425359249 1408 267.5546875 1408 384 1408 c 0
 500.4453125 1408 669.857464075 1408 699.494575718 1697.11281851 c 0
EndSplineSet
EndChar

StartChar: brokenbar
Encoding: 166 166 134
Width: 395
VWidth: 0
Flags: W
LayerCount: 2
Fore
SplineSet
197 -14 m 2
 253.478822174 -14 297 29.521177826 297 86 c 2
 297 514 l 2
 297 570.478822174 253.478822174 614 197 614 c 2
 194 614 l 2
 137.521177826 614 94 570.478822174 94 514 c 2
 94 86 l 2
 94 29.521177826 137.521177826 -14 194 -14 c 2
 197 -14 l 2
197 889 m 2
 253.478822174 889 297 932.521177826 297 989 c 2
 297 1418 l 2
 297 1474.47882217 253.478822174 1518 197 1518 c 2
 194 1518 l 2
 137.521177826 1518 94 1474.47882217 94 1418 c 2
 94 989 l 2
 94 932.521177826 137.521177826 889 194 889 c 2
 197 889 l 2
EndSplineSet
EndChar

StartChar: bullet
Encoding: 8226 8226 135
Width: 960
VWidth: 0
Flags: W
LayerCount: 2
Fore
SplineSet
221 891 m 0
 221 743 309 595 486 595 c 0
 663 595 751 743 751 891 c 0
 751 1039 663 1187 486 1187 c 0
 309 1187 221 1039 221 891 c 0
EndSplineSet
EndChar

StartChar: c
Encoding: 99 99 136
Width: 923
VWidth: 0
Flags: W
LayerCount: 2
Fore
SplineSet
860.13830577 348.04009578 m 0
 864.936700694 399.802903225 821.000817317 448 769.016080822 448 c 2
 713.463803278 448 l 2
 652.867894139 448 610.197488374 408.469786364 605.574518085 348.050481915 c 0
 598.90222168 260.84777832 573.875 192 480 192 c 0
 352 192 352 384 352 640 c 0
 352 896 352 1088 480 1088 c 0
 565.393066406 1088 593.847448826 1006.41621399 603.309890378 931.883370422 c 0
 611.3149089 868.830215488 653.116594023 832 716.675862967 832 c 2
 768.502569159 832 l 2
 821.44111878 832 865.328761779 879.157767205 861.530819871 931.95990422 c 0
 850.602645874 1083.89243889 791.9921875 1298 480 1298 c 0
 96 1298 96 896 96 640 c 0
 96 384 96 -18 480 -18 c 0
 780.849609375 -18 846.054210663 196.107561111 860.13830577 348.04009578 c 0
EndSplineSet
EndChar

StartChar: caron
Encoding: 711 711 138
Width: 768
VWidth: 0
Flags: W
LayerCount: 2
Fore
SplineSet
298.485291572 1707.02941686 m 2
 272.436946516 1759.12610697 219.245870248 1792 161 1792 c 2
 159 1792 l 2
 113.544251885 1792 86.1568630218 1747.68627396 106.485291572 1707.02941686 c 2
 211.27864045 1497.4427191 l 2
 238.697951036 1442.60409793 294.688557634 1408 356 1408 c 2
 412 1408 l 2
 473.311442366 1408 529.302048964 1442.60409793 556.72135955 1497.4427191 c 2
 661.514708428 1707.02941686 l 2
 681.843136978 1747.68627396 654.455748115 1792 609 1792 c 2
 607 1792 l 2
 548.754129752 1792 495.563053484 1759.12610697 469.514708428 1707.02941686 c 2
 384 1536 l 1
 298.485291572 1707.02941686 l 2
EndSplineSet
EndChar

StartChar: cedilla
Encoding: 184 184 143
Width: 576
VWidth: 0
Flags: W
LayerCount: 2
Fore
SplineSet
512 -320 m 0
 512 -219 362 -157 256 -128 c 1
 256 -63 l 2
 256 -27.4183420304 228.58165797 3.35777848054e-15 193 7.71527483463e-15 c 2
 191 -7.71527483463e-15 l 2
 155.41834203 -3.35777848054e-15 128 -27.4183420304 128 -63 c 2
 128 -89.5340429343 l 2
 128 -153.112709228 158.370488421 -200.918577731 215.923956327 -227.934223931 c 0
 271.551973104 -254.046061754 320 -285.951171875 320 -320 c 0
 320 -376.40625 270.286483765 -383.098983765 127.044560276 -383.893092312 c 0
 91.2393088994 -384.091590457 64 -411.482327976 64 -447.242600493 c 2
 64 -449.25337305 l 2
 64 -484.646994226 91.5873613964 -512.082334591 126.980442222 -511.886759544 c 0
 350.85281086 -510.64968586 512 -495.8984375 512 -320 c 0
EndSplineSet
EndChar

StartChar: cent
Encoding: 162 162 144
Width: 1027
VWidth: 0
Flags: W
LayerCount: 2
Fore
SplineSet
519 -128 m 2
 540.419204563 -128 557 -111.419204563 557 -90 c 2
 557 -14 l 1
 870 22 898 317 898 430 c 0
 898 438.53515625 897.862289429 446.106338501 897.689075351 452.458029091 c 0
 897.366194536 464.297938736 888.423588115 473 876.623071396 473 c 2
 745.698857008 473 l 2
 685.723863891 473 642.865675968 432.833196167 638.98139255 372.984118132 c 0
 634.004893303 296.306167603 616.759765625 235.45703125 557 207 c 1
 557 1073 l 1
 612.494140625 1048.55615234 631.32638073 994.433623314 637.717204398 931.969506032 c 0
 644.047507946 870.096914367 686.270832665 831.82316081 748.465939529 831.580211174 c 2
 802.508688483 831.369106686 l 2
 854.356141182 831.166577574 898.345133106 879.340191378 893.444880562 930.955953452 c 0
 880.649451137 1065.73387253 822.248291016 1263.42382812 557 1294 c 1
 557 1370 l 2
 557 1391.41920456 540.419204563 1408 519 1408 c 2
 517 1408 l 2
 495.580795437 1408 479 1391.41920456 479 1370 c 2
 479 1294 l 1
 149 1262 129 983 129 733 c 2
 129 532 l 2
 129 249 149 13 479 -15 c 1
 479 -90 l 2
 479 -111.419204563 495.580795437 -128 517 -128 c 2
 519 -128 l 2
479 1071 m 1
 479 206 l 1
 385 243 385 360 385 640 c 0
 385 894 385 1026 479 1071 c 1
EndSplineSet
EndChar

StartChar: circumflex
Encoding: 710 710 145
Width: 768
VWidth: 0
Flags: W
LayerCount: 2
Fore
SplineSet
609 1408 m 2
 654.455748115 1408 681.843136978 1452.31372604 661.514708428 1492.97058314 c 2
 556.72135955 1702.5572809 l 2
 529.302048964 1757.39590207 473.311442366 1792 412 1792 c 2
 356 1792 l 2
 294.688557634 1792 238.697951036 1757.39590207 211.27864045 1702.5572809 c 2
 106.485291572 1492.97058314 l 2
 86.1568630218 1452.31372604 113.544251885 1408 159 1408 c 2
 161 1408 l 2
 219.245870248 1408 272.436946516 1440.87389303 298.485291572 1492.97058314 c 2
 384 1664 l 1
 469.514708428 1492.97058314 l 2
 495.563053484 1440.87389303 548.754129752 1408 607 1408 c 2
 609 1408 l 2
EndSplineSet
EndChar

StartChar: colon
Encoding: 58 58 146
Width: 439
VWidth: 0
Flags: W
LayerCount: 2
Fore
SplineSet
284 832 m 2
 340.478822174 832 384 875.521177826 384 932 c 2
 384 988 l 2
 384 1044.47882217 340.478822174 1088 284 1088 c 2
 228 1088 l 2
 171.521177826 1088 128 1044.47882217 128 988 c 2
 128 932 l 2
 128 875.521177826 171.521177826 832 228 832 c 2
 284 832 l 2
284 256 m 2
 340.478822174 256 384 299.521177826 384 356 c 2
 384 412 l 2
 384 468.478822174 340.478822174 512 284 512 c 2
 228 512 l 2
 171.521177826 512 128 468.478822174 128 412 c 2
 128 356 l 2
 128 299.521177826 171.521177826 256 228 256 c 2
 284 256 l 2
EndSplineSet
EndChar

StartChar: comma
Encoding: 44 44 147
Width: 408
VWidth: 0
Flags: W
LayerCount: 2
Fore
SplineSet
204 0 m 1
 204 -34.6508789062 204 -91.8331007957 145.559329137 -116.301968994 c 0
 103.093083646 -134.08241108 92.8472496204 -161.694499241 113.436208443 -202.872416885 c 2
 114.650858121 -205.301716242 l 2
 129.095413425 -234.190826849 178.974563193 -256.519949275 210.143310547 -248.050292969 c 0
 318.895050853 -218.498580396 330.590642066 -103.066881352 331.848432087 155.990369433 c 0
 332.121474962 212.226891538 288.560380333 256 232.323195385 256 c 2
 176 256 l 2
 119.521177826 256 76 212.478822174 76 156 c 2
 76 100 l 2
 76 43.521177826 119.521177826 0 176 0 c 2
 204 0 l 1
EndSplineSet
EndChar

StartChar: commaaccent
Encoding: 63171 63171 148
Width: 330
VWidth: 0
Flags: W
LayerCount: 2
Fore
SplineSet
165 -335 m 1
 165 -369.650878906 165 -426.833100796 106.559329137 -451.301968994 c 0
 64.0930836459 -469.08241108 53.8472496204 -496.694499241 74.4362084427 -537.872416885 c 2
 75.6508581212 -540.301716242 l 2
 90.0954134246 -569.190826849 139.974563193 -591.519949275 171.143310547 -583.050292969 c 0
 279.895050853 -553.498580396 291.590642066 -438.066881352 292.848432087 -179.009630567 c 0
 293.121474962 -122.773108462 249.560380333 -79 193.323195385 -79 c 2
 137 -79 l 2
 80.521177826 -79 37 -122.521177826 37 -179 c 2
 37 -235 l 2
 37 -291.478822174 80.521177826 -335 137 -335 c 2
 165 -335 l 1
EndSplineSet
EndChar

StartChar: copyright
Encoding: 169 169 149
Width: 1528
VWidth: 0
Flags: W
LayerCount: 2
Fore
SplineSet
1053 562 m 2
 1053 571 l 2
 1053 574.836739846 1049.83673985 578 1046 578 c 2
 969.787641437 578 l 2
 913.74714675 578 876.705004525 545.248967368 869.839855194 489.630564213 c 0
 861.61730957 423.015136719 837.53125 365 768 365 c 0
 661 365 655 457 655 721 c 0
 655 1017 682 1036 776 1036 c 0
 828.540039062 1036 855.179761887 997.149525642 865.985387082 930.26044136 c 0
 875.512725261 871.28422158 912.256351434 840 971.066547967 840 c 2
 970.96916679 840 l 2
 1016.44735561 840 1055.96589141 885.332619176 1049.76259749 930.385752288 c 0
 1035.24640822 1035.81358075 980.496582031 1180 774 1180 c 0
 483 1180 475 934 475 723 c 0
 475 475 475 217 768 217 c 0
 1039 217 1053 490 1053 562 c 2
764 1260 m 0
 1053 1260 1286 1008 1286 696 c 0
 1286 384 1053 133 764 133 c 0
 475 133 242 384 242 696 c 0
 242 1008 475 1260 764 1260 c 0
764 -14 m 0
 1147 -14 1458 305 1458 700 c 0
 1458 1096 1147 1415 764 1415 c 0
 381 1415 70 1096 70 700 c 0
 70 305 381 -14 764 -14 c 0
EndSplineSet
EndChar

StartChar: currency
Encoding: 164 164 150
Width: 1024
VWidth: 0
Flags: W
LayerCount: 2
Fore
SplineSet
281 1217 m 1
 239.292893219 1258.70710678 l 2
 214.276788822 1283.72321118 175.723211178 1283.72321118 150.707106781 1258.70710678 c 2
 149.292893219 1257.29289322 l 2
 124.276788822 1232.27678882 124.276788822 1193.72321118 149.292893219 1168.70710678 c 2
 191 1127 l 1
 147 1059 128 978 128 897 c 0
 128 814 147 733 191 665 c 1
 149.292893219 623.292893219 l 2
 124.276788822 598.276788822 124.276788822 559.723211178 149.292893219 534.707106781 c 2
 150.707106781 533.292893219 l 2
 175.723211178 508.276788822 214.276788822 508.276788822 239.292893219 533.292893219 c 2
 281 575 l 1
 340 536 415 512 512 512 c 0
 609 512 684 536 743 575 c 1
 784.707106781 533.292893219 l 2
 809.723211178 508.276788822 848.276788822 508.276788822 873.292893219 533.292893219 c 2
 874.707106781 534.707106781 l 2
 899.685797421 559.685797421 899.574479155 598.202238996 874.451822721 623.036129264 c 2
 832 665 l 1
 876 733 896 814 896 897 c 0
 896 978 876 1059 832 1126 c 1
 874.707106781 1168.70710678 l 2
 899.723211178 1193.72321118 899.723211178 1232.27678882 874.707106781 1257.29289322 c 2
 873.292893219 1258.70710678 l 2
 848.276788822 1283.72321118 809.723211178 1283.72321118 784.707106781 1258.70710678 c 2
 743 1217 l 1
 684 1256 609 1280 512 1280 c 0
 415 1280 340 1256 281 1217 c 1
320 897 m 0
 320 1005 377 1110 512 1110 c 0
 647 1110 704 1003 704 896 c 0
 704 789 646 682 512 682 c 0
 378 682 320 790 320 897 c 0
EndSplineSet
EndChar

StartChar: d
Encoding: 100 100 151
Width: 1056
VWidth: 0
Flags: W
LayerCount: 2
Fore
SplineSet
480 192 m 0
 376 192 352 324 352 705 c 0
 352 929 352 1088 480 1088 c 0
 544 1088 619 1069 672 1037 c 1
 672 232 l 1
 596 201 521 192 480 192 c 0
412 1298 m 0
 173 1298 96 1104 96 577 c 0
 96 345 167 -18 416 -18 c 0
 514 -18 605 46 672 116 c 1
 672 100 l 2
 672 43.521177826 715.521177826 0 772 0 c 2
 828 0 l 2
 884.478822174 0 928 43.521177826 928 100 c 2
 928 1691 l 2
 928 1747.47882217 884.478822174 1791 828 1791 c 2
 772 1791 l 2
 715.521177826 1791 672 1747.47882217 672 1691 c 2
 672 1153 l 1
 540 1293 463 1298 412 1298 c 0
EndSplineSet
EndChar

StartChar: daggerdbl
Encoding: 8225 8225 152
Width: 768
VWidth: 0
Flags: W
LayerCount: 2
Fore
SplineSet
704 604 m 2
 704 660.478822174 660.478822174 704 604 704 c 2
 512 704 l 1
 512 1024 l 1
 604 1024 l 2
 660.478822174 1024 704 1067.52117783 704 1124 c 2
 704 1180 l 2
 704 1236.47882217 660.478822174 1280 604 1280 c 2
 512 1280 l 1
 512 1436 l 2
 512 1492.47882217 468.478822174 1536 412 1536 c 2
 356 1536 l 2
 299.521177826 1536 256 1492.47882217 256 1436 c 2
 256 1280 l 1
 164 1280 l 2
 107.521177826 1280 64 1236.47882217 64 1180 c 2
 64 1124 l 2
 64 1067.52117783 107.521177826 1024 164 1024 c 2
 256 1024 l 1
 256 704 l 1
 164 704 l 2
 107.521177826 704 64 660.478822174 64 604 c 2
 64 548 l 2
 64 491.521177826 107.521177826 448 164 448 c 2
 256 448 l 1
 256 100 l 2
 256 43.521177826 299.521177826 0 356 0 c 2
 412 0 l 2
 468.478822174 0 512 43.521177826 512 100 c 2
 512 448 l 1
 604 448 l 2
 660.478822174 448 704 491.521177826 704 548 c 2
 704 604 l 2
EndSplineSet
EndChar

StartChar: degree
Encoding: 176 176 154
Width: 1024
VWidth: 0
Flags: W
LayerCount: 2
Fore
SplineSet
128 1427 m 0
 128 1234 237 1042 512 1042 c 0
 787 1042 896 1234 896 1427 c 0
 896 1618 787 1810 512 1810 c 0
 236 1810 128 1618 128 1427 c 0
320 1427 m 0
 320 1535 377 1640 512 1640 c 0
 647 1640 704 1533 704 1426 c 0
 704 1319 646 1212 512 1212 c 0
 378 1212 320 1320 320 1427 c 0
EndSplineSet
EndChar

StartChar: dieresis
Encoding: 168 168 155
Width: 896
VWidth: 0
Flags: W
LayerCount: 2
Fore
SplineSet
284 1536 m 2
 340.478822174 1536 384 1579.52117783 384 1636 c 2
 384 1692 l 2
 384 1748.47882217 340.478822174 1792 284 1792 c 2
 228 1792 l 2
 171.521177826 1792 128 1748.47882217 128 1692 c 2
 128 1636 l 2
 128 1579.52117783 171.521177826 1536 228 1536 c 2
 284 1536 l 2
668 1536 m 2
 724.478822174 1536 768 1579.52117783 768 1636 c 2
 768 1692 l 2
 768 1748.47882217 724.478822174 1792 668 1792 c 2
 612 1792 l 2
 555.521177826 1792 512 1748.47882217 512 1692 c 2
 512 1636 l 2
 512 1579.52117783 555.521177826 1536 612 1536 c 2
 668 1536 l 2
EndSplineSet
EndChar

StartChar: divide
Encoding: 247 247 156
Width: 640
VWidth: 0
Flags: W
LayerCount: 2
Fore
SplineSet
545 576 m 2
 598.654881065 576 640 617.345118935 640 671 c 2
 640 673 l 2
 640 726.654881065 598.654881065 768 545 768 c 2
 95 768 l 2
 41.3451189347 768 -7.59497513456e-15 726.654881065 -1.74512168878e-14 673 c 2
 1.74512168878e-14 671 l 2
 7.59497513456e-15 617.345118935 41.3451189347 576 95 576 c 2
 545 576 l 2
348 879 m 2
 404.478822174 879 448 922.521177826 448 979 c 2
 448 1035 l 2
 448 1091.47882217 404.478822174 1135 348 1135 c 2
 292 1135 l 2
 235.521177826 1135 192 1091.47882217 192 1035 c 2
 192 979 l 2
 192 922.521177826 235.521177826 879 292 879 c 2
 348 879 l 2
348 233 m 2
 404.478822174 233 448 276.521177826 448 333 c 2
 448 389 l 2
 448 445.478822174 404.478822174 489 348 489 c 2
 292 489 l 2
 235.521177826 489 192 445.478822174 192 389 c 2
 192 333 l 2
 192 276.521177826 235.521177826 233 292 233 c 2
 348 233 l 2
EndSplineSet
EndChar

StartChar: dollar
Encoding: 36 36 157
Width: 1216
VWidth: 0
Flags: W
LayerCount: 2
Fore
SplineSet
127 1378 m 0
 127 1230 188 1066 320 960 c 2
 576 755 l 1
 576 200 l 1
 555 208 l 1
 456.131835938 253.510742188 410.829904318 358.129051208 393.005559538 476.441358791 c 0
 384.325481033 534.056947511 338.490838996 564.622709749 281.964740275 550.491185069 c 2
 218.052509899 534.513127475 l 2
 167.5337275 521.883431875 130.026268065 463.837011999 139.270639802 412.590566491 c 0
 150.083274603 352.650408745 167.845214844 297.268066406 192 247 c 0
 250 128 364 1 576 -15 c 1
 576 -65 l 2
 576 -100.58165797 603.41834203 -128 639 -128 c 2
 641 -128 l 2
 676.58165797 -128 704 -100.58165797 704 -65 c 2
 704 -15 l 1
 964 11 1088 197 1088 401 c 0
 1088 577 994 767 832 896 c 2
 704 998 l 1
 704 1564 l 1
 724 1549 l 1
 775.379394531 1507.21142578 804.232135773 1447.58925104 819.238767276 1379.13552094 c 0
 832.346977749 1319.34156241 877.466842081 1291.36671052 936.853056831 1306.21326421 c 2
 998.656734659 1321.66418366 l 2
 1048.34938269 1334.08734567 1084.96048698 1392.99301221 1074.10094808 1443.05062539 c 0
 1041.86768413 1591.63154334 953.743896484 1732.69775391 745 1790 c 1
 704 1799 l 1
 704 1857 l 2
 704 1892.58165797 676.58165797 1920 641 1920 c 2
 639 1920 l 2
 603.41834203 1920 576 1892.58165797 576 1857 c 2
 576 1810 l 1
 283 1810 127 1608 127 1378 c 0
576 1600 m 1
 576 1101 l 1
 512 1152 l 2
 425 1221 384 1317 384 1405 c 0
 384 1485 415 1553 489 1584 c 0
 514 1595 543 1600 576 1600 c 1
704 198 m 1
 704 648 l 1
 724 628 l 2
 796 556 832 479 832 384 c 0
 832 279 789 217 704 198 c 1
EndSplineSet
EndChar

StartChar: dotaccent
Encoding: 729 729 158
Width: 384
VWidth: 0
Flags: W
LayerCount: 2
Fore
SplineSet
220 1446 m 2
 276.478822174 1446 320 1489.52117783 320 1546 c 2
 320 1602 l 2
 320 1658.47882217 276.478822174 1702 220 1702 c 2
 164 1702 l 2
 107.521177826 1702 64 1658.47882217 64 1602 c 2
 64 1546 l 2
 64 1489.52117783 107.521177826 1446 164 1446 c 2
 220 1446 l 2
EndSplineSet
EndChar

StartChar: dotaccentcmb
Encoding: 775 775 159
Width: 384
VWidth: 0
Flags: W
LayerCount: 2
Fore
SplineSet
220 1446 m 2
 276.478822174 1446 320 1489.52117783 320 1546 c 2
 320 1602 l 2
 320 1658.47882217 276.478822174 1702 220 1702 c 2
 164 1702 l 2
 107.521177826 1702 64 1658.47882217 64 1602 c 2
 64 1546 l 2
 64 1489.52117783 107.521177826 1446 164 1446 c 2
 220 1446 l 2
EndSplineSet
EndChar

StartChar: dotlessi
Encoding: 305 305 160
Width: 512
VWidth: 0
Flags: W
LayerCount: 2
Fore
SplineSet
284 0 m 2
 340.478822174 0 384 43.521177826 384 100 c 2
 384 1180 l 2
 384 1236.47882217 340.478822174 1280 284 1280 c 2
 228 1280 l 2
 171.521177826 1280 128 1236.47882217 128 1180 c 2
 128 100 l 2
 128 43.521177826 171.521177826 0 228 0 c 2
 284 0 l 2
EndSplineSet
EndChar

StartChar: dotlessj
Encoding: 567 567 161
Width: 576
VWidth: 0
Flags: W
LayerCount: 2
Fore
SplineSet
128 -320 m 0
 312 -320 448 -212 448 -7 c 2
 448 1180 l 2
 448 1236.47882217 404.478822174 1280 348 1280 c 2
 292 1280 l 2
 235.521177826 1280 192 1236.47882217 192 1180 c 2
 192 21 l 2
 192 -14 192 -128 64 -128 c 0
 55.46875 -128 43.2415275574 -127.147083282 30.8049629256 -125.744435087 c 0
 13.0103746782 -123.737486397 -2.4051195465e-15 -135.36298248 -5.69465678694e-15 -153.270389159 c 2
 1.17162643898e-14 -246.143775512 l 2
 6.07972559225e-15 -276.827663587 31.6886709424 -312.478055861 62.1608821098 -316.076018342 c 0
 86.2847061157 -318.924404144 110.369140625 -320 128 -320 c 0
EndSplineSet
EndChar

StartChar: e
Encoding: 101 101 162
Width: 950
VWidth: 0
Flags: HW
LayerCount: 2
Fore
SplineSet
626.711914062 344.05078125 m 0
 606.602184435 260.590381202 590.390357061 192 480 192 c 0
 352 192 352 384 352 576 c 2
 352 640 l 1
 850 640 l 2
 857.800996659 640 864 646.199003341 864 654 c 2
 864 670 l 2
 864 1152 736 1298 480 1298 c 0
 224 1298 96 1152 96 670 c 0
 96 129 224 -18 479 -18 c 0
 697.050521114 -18 830.993321988 86.0022339978 855.176525169 314.399993896 c 0
 855.597615511 318.72512124 855.802093816 322.954806102 855.802093816 327.086384464 c 0
 855.802093816 397.698278718 796.075056459 439.653780647 737.194105814 439.653780647 c 0
 688.002986678 439.653780647 639.40239304 410.370973911 626.711914062 344.05078125 c 0
608 768 m 1
 352 768 l 1
 352 896 352 1088 480 1088 c 0
 605.262773723 1088 608.005754169 912.449251425 608.005754169 785.164280439 c 0
 608.005754169 779.33443444 608 773.605839416 608 768 c 1
EndSplineSet
EndChar

StartChar: eight
Encoding: 56 56 168
Width: 1088
VWidth: 0
Flags: W
LayerCount: 2
Fore
SplineSet
705 1344 m 0
 705 1216 688 1063 545 1063 c 0
 401 1063 383 1216 383 1344 c 0
 383 1466 410 1600 545 1600 c 0
 677 1600 705 1466 705 1344 c 0
122 1344 m 0
 122 1186 152 1049 290 946 c 1
 170 869 96 769 96 511 c 0
 96 192 213 -18 545 -18 c 0
 877 -18 992 192 992 511 c 0
 992 771 918 867 799 946 c 1
 937 1050 966 1186 966 1344 c 0
 966 1631 829 1810 545 1810 c 0
 260 1810 122 1631 122 1344 c 0
352 511 m 0
 352 636 373 818 545 818 c 0
 716 818 736 636 736 511 c 0
 736 384 736 192 545 192 c 0
 352 192 352 384 352 511 c 0
EndSplineSet
EndChar

StartChar: emdash
Encoding: 8212 8212 170
Width: 384
VWidth: 0
Flags: W
LayerCount: 2
Fore
SplineSet
289 448 m 2
 342.654881065 448 384 489.345118935 384 543 c 2
 384 545 l 2
 384 598.654881065 342.654881065 640 289 640 c 2
 95 640 l 2
 41.3451189347 640 -7.59497513456e-15 598.654881065 -1.74512168878e-14 545 c 2
 1.74512168878e-14 543 l 2
 7.59497513456e-15 489.345118935 41.3451189347 448 95 448 c 2
 289 448 l 2
EndSplineSet
EndChar

StartChar: endash
Encoding: 8211 8211 171
Width: 384
VWidth: 0
Flags: W
LayerCount: 2
Fore
SplineSet
289 448 m 2
 342.654881065 448 384 489.345118935 384 543 c 2
 384 545 l 2
 384 598.654881065 342.654881065 640 289 640 c 2
 95 640 l 2
 41.3451189347 640 -7.59497513456e-15 598.654881065 -1.74512168878e-14 545 c 2
 1.74512168878e-14 543 l 2
 7.59497513456e-15 489.345118935 41.3451189347 448 95 448 c 2
 289 448 l 2
EndSplineSet
EndChar

StartChar: equal
Encoding: 61 61 173
Width: 704
VWidth: 0
Flags: W
LayerCount: 2
Fore
SplineSet
640 673 m 2
 640 726.654881065 598.654881065 768 545 768 c 2
 159 768 l 2
 105.345118935 768 64 726.654881065 64 673 c 2
 64 671 l 2
 64 617.345118935 105.345118935 576 159 576 c 2
 545 576 l 2
 598.654881065 576 640 617.345118935 640 671 c 2
 640 673 l 2
640 352 m 2
 640 405.654881065 598.654881065 447 545 447 c 2
 159 447 l 2
 105.345118935 447 64 405.654881065 64 352 c 2
 64 350 l 2
 64 296.345118935 105.345118935 255 159 255 c 2
 545 255 l 2
 598.654881065 255 640 296.345118935 640 350 c 2
 640 352 l 2
EndSplineSet
EndChar

StartChar: eth
Encoding: 240 240 174
Width: 1152
VWidth: 0
Flags: W
LayerCount: 2
Fore
SplineSet
699 1446 m 1
 746 1378 768 1285 768 1152 c 1
 766 1159 699 1298 512 1298 c 0
 256 1298 129 1022 129 640 c 0
 129 256 223 -18 576 -18 c 0
 832 -18 1024 192 1024 576 c 2
 1024 960 l 2
 1024 1200 995 1372 932 1500 c 1
 1026.61335467 1521.83385108 l 2
 1063.03323453 1530.23843874 1088 1561.62293828 1088 1599 c 2
 1088 1601 l 2
 1088 1634.09236352 1058.86906658 1657.22833565 1026.63611367 1649.73558783 c 2
 860 1611 l 1
 740.664428711 1749.03741455 553.915002506 1799.04026562 291.982311396 1808.33132315 c 0
 237.309818739 1810.27062013 192 1766.53949789 192 1711.83262148 c 2
 192 1702.20235085 l 2
 192 1643.69234917 233.528220765 1600.52814483 291.994574189 1598.2685402 c 0
 407.709732056 1593.79638672 501.41015625 1579.76171875 576 1546 c 1
 317.380173327 1486.19416508 l 2
 280.961176426 1477.77227205 256 1446.38009654 256 1409 c 2
 256 1407 l 2
 256 1373.88461072 285.122621924 1350.70543439 317.393644982 1358.13578282 c 2
 699 1446 l 1
576 192 m 0
 448 192 384 320 384 704 c 0
 384 960 448 1088 576 1088 c 0
 680 1088 740 1021 768 978 c 1
 768 512 l 2
 768 320 704 192 576 192 c 0
EndSplineSet
EndChar

StartChar: exclam
Encoding: 33 33 175
Width: 375
VWidth: 0
Flags: W
LayerCount: 2
Fore
SplineSet
225 384 m 2
 278.654881065 384 320 425.345118935 320 479 c 2
 320 1692 l 2
 320 1748.47882217 276.478822174 1792 220 1792 c 2
 164 1792 l 2
 108.200889997 1792 66.0070590253 1747.84470144 68.5407660919 1692.10314598 c 2
 123.686272213 478.90201132 l 2
 126.15036461 424.691978584 168.733994061 384 223 384 c 2
 225 384 l 2
220 0 m 2
 276.478822174 0 320 43.521177826 320 100 c 2
 320 156 l 2
 320 212.478822174 276.478822174 256 220 256 c 2
 164 256 l 2
 107.521177826 256 64 212.478822174 64 156 c 2
 64 100 l 2
 64 43.521177826 107.521177826 0 164 0 c 2
 220 0 l 2
EndSplineSet
EndChar

StartChar: exclamdown
Encoding: 161 161 176
Width: 384
VWidth: 0
Flags: W
LayerCount: 2
Fore
SplineSet
161 0 m 2
 214.654881065 0 256 41.3451189347 256 95 c 2
 256 1089 l 2
 256 1124.58165797 228.58165797 1152 193 1152 c 2
 191 1152 l 2
 154.926275966 1152 126.506398944 1125.11518099 124.505388764 1089.09699775 c 2
 69.2696518641 94.8537335545 l 2
 66.3374391906 42.0739054309 106.138784275 0 159 0 c 2
 161 0 l 2
220 1280 m 2
 276.478822174 1280 320 1323.52117783 320 1380 c 2
 320 1436 l 2
 320 1492.47882217 276.478822174 1536 220 1536 c 2
 164 1536 l 2
 107.521177826 1536 64 1492.47882217 64 1436 c 2
 64 1380 l 2
 64 1323.52117783 107.521177826 1280 164 1280 c 2
 220 1280 l 2
EndSplineSet
EndChar

StartChar: f
Encoding: 102 102 177
Width: 641
VWidth: 0
Flags: W
PickledData: "(dp1
S'com.typemytype.robofont.layerData'
p2
(dp3
s."
LayerCount: 2
Fore
SplineSet
341 0 m 2
 397 0 441 44 441 100 c 2
 441 1088 l 1
 538 1088 l 2
 592 1088 633 1129 633 1183 c 2
 633 1185 l 2
 633 1239 592 1280 538 1280 c 2
 441 1280 l 1
 441 1376 l 2
 441 1461 450 1536 547 1536 c 0
 558 1536 574 1534 591 1531 c 0
 613 1528 633 1545 633 1568 c 2
 633 1640 l 2
 633 1684 599 1721 555 1725 c 0
 526 1727 502 1728 475 1728 c 0
 175 1728 185 1501 185 1329 c 2
 185 1280 l 1
 152 1280 l 2
 98 1280 57 1239 57 1185 c 2
 57 1183 l 2
 57 1129 98 1088 152 1088 c 2
 185 1088 l 1
 185 100 l 2
 185 44 229 0 285 0 c 2
 341 0 l 2
EndSplineSet
EndChar

StartChar: five
Encoding: 53 53 179
Width: 1152
VWidth: 0
Flags: W
LayerCount: 2
Fore
SplineSet
268 1792 m 2
 211.521177826 1792 168 1748.47882217 168 1692 c 2
 168 926 l 2
 168 869.521177826 211.521177826 826 268 826 c 2
 244.480205788 826 l 2
 344.27617301 826 371.636813408 837.653668584 440.783987667 909.61131839 c 0
 475.232425928 945.45990777 522.015625 974 577 974 c 0
 758 974 768 834 768 658 c 0
 768 345 748 186 557 186 c 0
 400 186 384 334 384 472 c 2
 384 493 l 2
 384 503.640932927 375.640932927 512 365 512 c 2
 224.065715666 512 l 2
 171.42980719 512 127.53395568 464.510827215 131.666925033 412.037429903 c 0
 150.871141806 168.215032324 251.466064453 -18 571 -18 c 0
 969 -18 1024 348 1024 640 c 0
 1024 949 925 1166 640 1166 c 0
 509 1166 429 1130 384 1102 c 1
 400 1536 l 1
 860 1536 l 2
 916.478822174 1536 960 1579.52117783 960 1636 c 2
 960 1692 l 2
 960 1748.47882217 916.478822174 1792 860 1792 c 2
 268 1792 l 2
EndSplineSet
EndChar

StartChar: florin
Encoding: 402 402 181
Width: 704
VWidth: 0
Flags: W
LayerCount: 2
Fore
SplineSet
192 1088 m 1
 192 96 l 2
 192 11 183 -64 86 -64 c 0
 75.3310546875 -64 59.3018636703 -62.4234571457 41.8075963054 -60.1556372 c 0
 18.6939078801 -57.1593594745 -3.46274841401e-15 -73.5863519081 -7.74419071331e-15 -96.8934382304 c 2
 1.44358692735e-14 -167.787085049 l 2
 6.38226569962e-15 -211.628860923 34.08882076 -248.779863209 77.7688882053 -252.541913144 c 0
 106.667823792 -255.030902863 130.71875 -256 158 -256 c 0
 448 -256 448 -64 448 128 c 2
 448 1088 l 1
 481 1088 l 2
 534.654881065 1088 576 1129.34511893 576 1183 c 2
 576 1185 l 2
 576 1238.65488107 534.654881065 1280 481 1280 c 2
 448 1280 l 1
 448 1376 l 2
 448 1461 457 1536 554 1536 c 0
 565.2109375 1536 580.820854187 1533.80051041 598.011654019 1531.33897225 c 0
 620.046714926 1528.18378786 640 1545.48349142 640 1567.61641309 c 2
 640 1639.78708505 l 2
 640 1683.62886092 605.91117924 1720.77986321 562.231111795 1724.54191314 c 0
 533.332176208 1727.03090286 509.28125 1728 482 1728 c 0
 192 1728 192 1536 192 1344 c 2
 192 1280 l 1
 159 1280 l 2
 105.345118935 1280 64 1238.65488107 64 1185 c 2
 64 1183 l 2
 64 1129.34511893 105.345118935 1088 159 1088 c 2
 192 1088 l 1
EndSplineSet
EndChar

StartChar: four
Encoding: 52 52 182
Width: 1126
VWidth: 0
Flags: W
LayerCount: 2
Fore
SplineSet
764 0 m 2
 820.478822174 0 864 43.521177826 864 100 c 2
 864 460 l 1
 962 460 l 2
 1018.47882217 460 1062 503.521177826 1062 560 c 2
 1062 602 l 2
 1062 658.478822174 1018.47882217 702 962 702 c 2
 864 702 l 1
 864 1693 l 2
 864 1749.47882217 820.478822174 1793 764 1793 c 2
 644 1793 l 2
 583.087860448 1793 528.635656778 1757.05841139 504.692800665 1701.04923013 c 2
 135.307199335 836.950769874 l 2
 111.957921127 782.330136921 96 704.402039839 96 645 c 2
 96 560 l 2
 96 503.521177826 139.521177826 460 196 460 c 2
 608 460 l 1
 608 100 l 2
 608 43.521177826 651.521177826 0 708 0 c 2
 764 0 l 2
608 1472 m 1
 608 702 l 1
 352 702 l 1
 608 1472 l 1
EndSplineSet
EndChar

StartChar: foursuperior
Encoding: 8308 8308 183
Width: 768
VWidth: 0
Flags: W
LayerCount: 2
Fore
SplineSet
481 576 m 2
 534.654881065 576 576 617.345118935 576 671 c 2
 576 832 l 1
 641 832 l 2
 676.58165797 832 704 859.41834203 704 895 c 2
 704 897 l 2
 704 932.58165797 676.58165797 960 641 960 c 2
 576 960 l 1
 576 1451 l 2
 576 1499.00699885 539.006998848 1536 491 1536 c 2
 489 1536 l 2
 436.566460879 1536 387.445611591 1507.95491846 360.792264901 1462.80101348 c 2
 96.0245566027 1014.25336648 l 2
 76.528021129 981.223941677 64 935.354371306 64 897 c 2
 64 895 l 2
 64 859.41834203 91.4183420304 832 127 832 c 2
 384 832 l 1
 384 671 l 2
 384 617.345118935 425.345118935 576 479 576 c 2
 481 576 l 2
384 1216 m 1
 384 960 l 1
 256 960 l 1
 384 1216 l 1
EndSplineSet
EndChar

StartChar: fraction
Encoding: 8260 8260 184
Width: 537
VWidth: 0
Flags: W
LayerCount: 2
Fore
SplineSet
138 383 m 2
 196.856760198 383 245.514642341 423.451159833 256.264585815 481.317876833 c 2
 501.735414185 1802.68212317 l 2
 511.498541428 1855.23682939 473.453866088 1901 420 1901 c 2
 401 1901 l 2
 342.136031133 1901 293.460924666 1860.56071958 282.6728179 1802.69377234 c 2
 36.3271820996 481.306227658 l 2
 26.5326449282 428.768745586 64.5573206061 383 118 383 c 2
 138 383 l 2
EndSplineSet
EndChar

StartChar: g
Encoding: 103 103 185
Width: 973
VWidth: 0
Flags: W
LayerCount: 2
Fore
SplineSet
757 1147 m 1
 685 1259 609 1298 481 1298 c 0
 289 1298 97 1152 97 832 c 0
 97 695 134 556 225 448 c 1
 183 394 97 274 97 201 c 0
 97 159 141 112 225 89 c 1
 161 57 102 15 70 -52 c 0
 38 -119 33 -163 33 -195 c 0
 33 -380 404 -383 545 -383 c 0
 669 -383 993 -351 993 -64 c 0
 993 326 317 143 317 301 c 0
 317 329 338 357 352 383 c 1
 400 375 l 2
 419 372 459 368 481 368 c 0
 737 368 865 576 865 832 c 0
 865 920 846 986 833 1024 c 1
 846.499999987 1037.49999999 866.249999963 1053.49999997 892.749999926 1066.12499996 c 0
 976.20931799 1105.88627889 993 1132.4844399 993 1217.88561325 c 2
 993 1213.64623219 l 2
 993 1253.66828887 931.726552744 1294.25195509 894.876248476 1278.63721537 c 0
 825.760189414 1249.35036701 781.822998047 1192.390625 757 1147 c 1
769 -99 m 0
 769 -191 610 -194 545 -194 c 0
 482 -194 424 -193 355 -188 c 0
 287 -184 259 -167 259 -135 c 0
 259 -56 314 27 353 57 c 1
 564 32 l 2
 689 17 756 -15 765 -66 c 0
 768 -78 769 -89 769 -99 c 0
481 1120 m 0
 609 1120 641 960 641 832 c 0
 641 704 609 560 481 560 c 0
 353 560 321 704 321 832 c 0
 321 960 353 1120 481 1120 c 0
EndSplineSet
EndChar

StartChar: gcedilla
Encoding: 291 291 187
Width: 973
VWidth: 0
Flags: W
LayerCount: 2
Fore
SplineSet
499 1633 m 1
 499 1667.65087891 499 1724.8331008 557.440670863 1749.30196899 c 0
 599.906916354 1767.08241108 610.15275038 1794.69449924 589.563791557 1835.87241689 c 2
 588.349141879 1838.30171624 l 2
 573.904586575 1867.19082685 524.025436807 1889.51994927 492.856689453 1881.05029297 c 0
 384.104949147 1851.4985804 372.409357934 1736.06688135 371.151567913 1477.00963057 c 0
 370.878525038 1420.77310846 414.439619667 1377 470.676804615 1377 c 2
 527 1377 l 2
 583.478822174 1377 627 1420.52117783 627 1477 c 2
 627 1533 l 2
 627 1589.47882217 583.478822174 1633 527 1633 c 2
 499 1633 l 1
EndSplineSet
Refer: 185 103 N 1 0 0 1 0 0 2
EndChar

StartChar: germandbls
Encoding: 223 223 190
Width: 1152
VWidth: 0
Flags: W
LayerCount: 2
Fore
SplineSet
384 1359 m 2
 384 1510 416 1600 544 1600 c 0
 677 1600 711 1507 711 1344 c 0
 711 1206.609375 675.156551957 1101.9899025 607.500168596 1053.59183834 c 0
 516.683141744 988.625783791 512 979.517662415 512 880.275693477 c 2
 512 936.402689562 l 2
 512 857.028751717 536.007079807 822.938520947 610.739074273 796.192474282 c 0
 711.098694086 760.274483681 768 663.689453125 768 512 c 0
 768 306.75 726.859802246 224.920593262 611.594931781 200.542829871 c 0
 544.180940765 186.285213343 512 146.586369652 512 77.681175263 c 2
 512 76.5795697592 l 2
 512 25.5138752712 561.125163185 -18.4073754855 611.872391298 -12.713168575 c 0
 918.534881592 21.696586132 1024 221.53125 1024 512 c 0
 1024 752 896 896 741 939 c 1
 896 1024 960 1152 960 1344 c 0
 960 1536 896 1810 512 1810 c 0
 320 1810 128 1682 128 1354 c 2
 128 100 l 2
 128 43.521177826 171.521177826 0 228 0 c 2
 284 0 l 2
 340.478822174 0 384 43.521177826 384 100 c 2
 384 1359 l 2
EndSplineSet
EndChar

StartChar: grave
Encoding: 96 96 191
Width: 640
VWidth: 0
Flags: W
LayerCount: 2
Fore
SplineSet
449 1408 m 2
 480.923850396 1408 502.172858634 1437.4814241 492.077650741 1467.76704778 c 2
 415.622776602 1697.13167019 l 2
 396.570174092 1754.28947772 344.249619283 1792 284 1792 c 2
 228 1792 l 2
 183.296502692 1792 158.672980894 1745.99052866 183.470019623 1708.79497057 c 2
 349.053887638 1460.41916854 l 2
 370.689012844 1427.96648073 407.99672336 1408 447 1408 c 2
 449 1408 l 2
EndSplineSet
EndChar

StartChar: greater
Encoding: 62 62 192
Width: 832
VWidth: 0
Flags: W
LayerCount: 2
Fore
SplineSet
209.923192052 1158.65376556 m 2
 173.833925062 1183.91625246 128 1160.05256446 128 1116 c 2
 128 1060 l 2
 128 997.993382011 158.949127117 937.962563504 209.45925811 901.996644337 c 2
 576 641 l 1
 209.287439759 378.243902148 l 2
 158.877210955 342.124073028 128 282.014782301 128 220 c 2
 128 164 l 2
 128 119.947435535 173.833925062 96.0837475432 209.923192052 121.346234436 c 2
 686.076807948 454.653765564 l 2
 736.855586974 490.198910882 768 550.016600972 768 612 c 2
 768 668 l 2
 768 729.983399028 736.855586974 789.801089118 686.076807948 825.346234436 c 2
 209.923192052 1158.65376556 l 2
EndSplineSet
EndChar

StartChar: guillemotleft
Encoding: 171 171 193
Width: 1024
VWidth: 0
Flags: W
LayerCount: 2
Fore
SplineSet
446.149539213 139.257669471 m 2
 470.411153405 111.530110394 512 127.156500498 512 164 c 2
 512 284 l 2
 512 346.137613304 485.27948898 410.824888017 441.427293543 454.848381092 c 2
 256 641 l 1
 441.151080483 825.427834075 l 2
 485.178515347 869.283286771 512 933.857295264 512 996 c 2
 512 1116 l 2
 512 1152.8434995 470.411153405 1168.46988961 446.149539213 1140.74233053 c 2
 105.485790296 751.412331767 l 2
 79.7675719314 722.020082207 64 680.055487322 64 641 c 2
 64 639 l 2
 64 599.944512678 79.7675719314 557.979917793 105.485790296 528.587668233 c 2
 446.149539213 139.257669471 l 2
894.149539213 139.257669471 m 2
 918.411153405 111.530110394 960 127.156500498 960 164 c 2
 960 284 l 2
 960 346.137613304 933.27948898 410.824888017 889.427293543 454.848381092 c 2
 704 641 l 1
 889.151080483 825.427834075 l 2
 933.178515347 869.283286771 960 933.857295264 960 996 c 2
 960 1116 l 2
 960 1152.8434995 918.411153405 1168.46988961 894.149539213 1140.74233053 c 2
 553.485790296 751.412331767 l 2
 527.767571931 722.020082207 512 680.055487322 512 641 c 2
 512 639 l 2
 512 599.944512678 527.767571931 557.979917793 553.485790296 528.587668233 c 2
 894.149539213 139.257669471 l 2
EndSplineSet
EndChar

StartChar: guillemotright
Encoding: 187 187 194
Width: 1024
VWidth: 0
Flags: W
LayerCount: 2
Fore
SplineSet
577.850460787 1140.74233053 m 2
 553.588846595 1168.46988961 512 1152.8434995 512 1116 c 2
 512 996 l 2
 512 933.857295264 538.821484653 869.283286771 582.848919517 825.427834075 c 2
 768 641 l 1
 582.572706457 454.848381092 l 2
 538.72051102 410.824888017 512 346.137613304 512 284 c 2
 512 164 l 2
 512 127.156500498 553.588846595 111.530110394 577.850460787 139.257669471 c 2
 918.514209704 528.587668233 l 2
 944.232428069 557.979917793 960 599.944512678 960 639 c 2
 960 641 l 2
 960 680.055487322 944.232428069 722.020082207 918.514209704 751.412331767 c 2
 577.850460787 1140.74233053 l 2
129.850460787 1140.74233053 m 2
 105.588846595 1168.46988961 64 1152.8434995 64 1116 c 2
 64 996 l 2
 64 933.857295264 90.821484653 869.283286771 134.848919517 825.427834075 c 2
 320 641 l 1
 134.572706457 454.848381092 l 2
 90.7205110204 410.824888017 64 346.137613304 64 284 c 2
 64 164 l 2
 64 127.156500498 105.588846595 111.530110394 129.850460787 139.257669471 c 2
 470.514209704 528.587668233 l 2
 496.232428069 557.979917793 512 599.944512678 512 639 c 2
 512 641 l 2
 512 680.055487322 496.232428069 722.020082207 470.514209704 751.412331767 c 2
 129.850460787 1140.74233053 l 2
EndSplineSet
EndChar

StartChar: h
Encoding: 104 104 195
Width: 1024
VWidth: 0
Flags: W
LayerCount: 2
Fore
SplineSet
284 0 m 2
 340.478822174 0 384 43.521177826 384 100 c 2
 384 1013 l 1
 432 1053 487 1088 552 1088 c 0
 640 1088 640 1024 640 960 c 2
 640 100 l 2
 640 43.521177826 683.521177826 0 740 0 c 2
 796 0 l 2
 852.478822174 0 896 43.521177826 896 100 c 2
 896 1091 l 2
 896 1196 824 1298 712 1298 c 0
 651 1298 556 1298 384 1142 c 1
 384 1692 l 2
 384 1748.47882217 340.478822174 1792 284 1792 c 2
 228 1792 l 2
 171.521177826 1792 128 1748.47882217 128 1692 c 2
 128 100 l 2
 128 43.521177826 171.521177826 0 228 0 c 2
 284 0 l 2
EndSplineSet
EndChar

StartChar: hungarumlaut
Encoding: 733 733 197
Width: 640
VWidth: 0
Flags: W
LayerCount: 2
Fore
SplineSet
406 1792 m 2
 346.68742218 1792 296.911400022 1752.34065464 283.662384367 1694.52676815 c 2
 232.072697849 1469.40813607 l 2
 224.672992369 1437.11851216 247.873342252 1408 281 1408 c 2
 283 1408 l 2
 321.393156991 1408 355.764051751 1430.58672212 370.998544515 1465.8279584 c 2
 472.319770612 1700.20958985 l 2
 491.819480158 1745.31735169 461.142129083 1792 412 1792 c 2
 406 1792 l 2
740 1792 m 2
 679.750380717 1792 627.429825908 1754.28947772 608.377223398 1697.13167019 c 2
 531.922349259 1467.76704778 l 2
 521.827141366 1437.4814241 543.076149604 1408 575 1408 c 2
 577 1408 l 2
 616.00327664 1408 653.310987156 1427.96648073 674.946112362 1460.41916854 c 2
 840.529980377 1708.79497057 l 2
 865.327019106 1745.99052866 840.703497308 1792 796 1792 c 2
 740 1792 l 2
EndSplineSet
EndChar

StartChar: hyphen
Encoding: 45 45 198
Width: 384
VWidth: 0
Flags: W
LayerCount: 2
Fore
SplineSet
289 448 m 2
 342.654881065 448 384 489.345118935 384 543 c 2
 384 545 l 2
 384 598.654881065 342.654881065 640 289 640 c 2
 95 640 l 2
 41.3451189347 640 -7.59497513456e-15 598.654881065 -1.74512168878e-14 545 c 2
 1.74512168878e-14 543 l 2
 7.59497513456e-15 489.345118935 41.3451189347 448 95 448 c 2
 289 448 l 2
EndSplineSet
EndChar

StartChar: i
Encoding: 105 105 199
Width: 512
VWidth: 0
Flags: W
LayerCount: 2
Fore
SplineSet
284 0 m 2
 340.478822174 0 384 43.521177826 384 100 c 2
 384 1180 l 2
 384 1236.47882217 340.478822174 1280 284 1280 c 2
 228 1280 l 2
 171.521177826 1280 128 1236.47882217 128 1180 c 2
 128 100 l 2
 128 43.521177826 171.521177826 0 228 0 c 2
 284 0 l 2
284 1472 m 2
 340.478822174 1472 384 1515.52117783 384 1572 c 2
 384 1628 l 2
 384 1684.47882217 340.478822174 1728 284 1728 c 2
 228 1728 l 2
 171.521177826 1728 128 1684.47882217 128 1628 c 2
 128 1572 l 2
 128 1515.52117783 171.521177826 1472 228 1472 c 2
 284 1472 l 2
EndSplineSet
EndChar

StartChar: increment
Encoding: 8710 8710 206
Width: 1024
VWidth: 0
Flags: W
LayerCount: 2
Fore
SplineSet
512 896 m 1
 664 192 l 1
 361 192 l 1
 512 896 l 1
686.67485124 1182.60466581 m 2
 673.217528923 1240.40792946 623.349109613 1280 564 1280 c 2
 461 1280 l 2
 401.658695635 1280 351.810055446 1240.39350495 338.397345365 1182.58788575 c 2
 86.6026546355 97.412114254 l 2
 74.7008264508 46.1180399225 111.343228587 0 164 0 c 2
 862 0 l 2
 914.643121202 0 951.261898181 46.1233903653 939.32514876 97.3953341862 c 2
 686.67485124 1182.60466581 l 2
EndSplineSet
EndChar

StartChar: integral
Encoding: 8747 8747 207
Width: 704
VWidth: 0
Flags: W
LayerCount: 2
Fore
SplineSet
554 1536 m 0
 565.2109375 1536 580.820854187 1533.80051041 598.011654019 1531.33897225 c 0
 620.046714926 1528.18378786 640 1545.48349142 640 1567.61641309 c 2
 640 1639.78708505 l 2
 640 1683.62886092 605.91117924 1720.77986321 562.231111795 1724.54191314 c 0
 533.332176208 1727.03090286 509.28125 1728 482 1728 c 0
 192 1728 192 1536 192 1344 c 2
 192 96 l 2
 192 11 183 -64 86 -64 c 0
 75.3310546875 -64 59.3018636703 -62.4234571457 41.8075963054 -60.1556372 c 0
 18.6939078801 -57.1593594745 -3.46274841401e-15 -73.5863519081 -7.74419071331e-15 -96.8934382304 c 2
 1.44358692735e-14 -167.787085049 l 2
 6.38226569962e-15 -211.628860923 34.08882076 -248.779863209 77.7688882053 -252.541913144 c 0
 106.667823792 -255.030902863 130.71875 -256 158 -256 c 0
 448 -256 448 -64 448 128 c 2
 448 1376 l 2
 448 1461 457 1536 554 1536 c 0
EndSplineSet
EndChar

StartChar: j
Encoding: 106 106 210
Width: 537
VWidth: 0
Flags: W
LayerCount: 2
Fore
SplineSet
116 -320 m 0
 300 -320 436 -212 436 -7 c 2
 436 1180 l 2
 436 1236.47882217 392.478822174 1280 336 1280 c 2
 280 1280 l 2
 223.521177826 1280 180 1236.47882217 180 1180 c 2
 180 21 l 2
 180 -14 180 -128 52 -128 c 0
 43.46875 -128 31.2415275574 -127.147083282 18.8049629256 -125.744435087 c 0
 1.01037467818 -123.737486397 -12 -135.36298248 -12 -153.270389159 c 2
 -12 -246.143775512 l 2
 -12 -276.827663587 19.6886709424 -312.478055861 50.1608821098 -316.076018342 c 0
 74.2847061157 -318.924404144 98.369140625 -320 116 -320 c 0
336 1472 m 2
 392.478822174 1472 436 1515.52117783 436 1572 c 2
 436 1628 l 2
 436 1684.47882217 392.478822174 1728 336 1728 c 2
 280 1728 l 2
 223.521177826 1728 180 1684.47882217 180 1628 c 2
 180 1572 l 2
 180 1515.52117783 223.521177826 1472 280 1472 c 2
 336 1472 l 2
EndSplineSet
EndChar

StartChar: jcircumflex
Encoding: 309 309 211
Width: 576
VWidth: 0
Flags: W
LayerCount: 2
Fore
SplineSet
128 -320 m 0
 312 -320 448 -212 448 -7 c 2
 448 1180 l 2
 448 1236.47882217 404.478822174 1280 348 1280 c 2
 292 1280 l 2
 235.521177826 1280 192 1236.47882217 192 1180 c 2
 192 21 l 2
 192 -14 192 -128 64 -128 c 0
 55.46875 -128 43.2415275574 -127.147083282 30.8049629256 -125.744435087 c 0
 13.0103746782 -123.737486397 -2.4051195465e-15 -135.36298248 -5.69465678694e-15 -153.270389159 c 2
 1.17162643898e-14 -246.143775512 l 2
 6.07972559225e-15 -276.827663587 31.6886709424 -312.478055861 62.1608821098 -316.076018342 c 0
 86.2847061157 -318.924404144 110.369140625 -320 128 -320 c 0
545 1472 m 2
 590.455748115 1472 617.843136978 1516.31372604 597.514708428 1556.97058314 c 2
 492.72135955 1766.5572809 l 2
 465.302048964 1821.39590207 409.311442366 1856 348 1856 c 2
 292 1856 l 2
 230.688557634 1856 174.697951036 1821.39590207 147.27864045 1766.5572809 c 2
 42.4852915725 1556.97058314 l 2
 22.1568630218 1516.31372604 49.5442518848 1472 95 1472 c 2
 97 1472 l 2
 155.245870248 1472 208.436946516 1504.87389303 234.485291572 1556.97058314 c 2
 320 1728 l 1
 405.514708428 1556.97058314 l 2
 431.563053484 1504.87389303 484.754129752 1472 543 1472 c 2
 545 1472 l 2
EndSplineSet
EndChar

StartChar: k
Encoding: 107 107 212
Width: 960
VWidth: 0
Flags: W
PickledData: "(dp1
S'com.typemytype.robofont.layerData'
p2
(dp3
s."
LayerCount: 2
Fore
SplineSet
128 100 m 2
 128 43.521177826 171.521177826 0 228 0 c 2
 284 0 l 2
 340.478822174 0 384 43.521177826 384 100 c 2
 384 508 l 1
 502 684 l 1
 674.374638501 95.5109310816 l 2
 692 38 743.939727851 0 804 0 c 2
 860 0 l 2
 910.510653875 0 943.879052338 46.790067604 927.425417945 94.5457381587 c 2
 673 833 l 1
 905.971822095 1195.85158354 l 2
 930.364889733 1233.84357391 905.148788251 1280 860 1280 c 2
 804 1280 l 2
 742.066857044 1280 703 1269 668 1219 c 2
 384 807 l 1
 384 1692 l 2
 384 1748.47882217 340.478822174 1792 284 1792 c 2
 228 1792 l 2
 171.521177826 1792 128 1748.47882217 128 1692 c 2
 128 100 l 2
EndSplineSet
EndChar

StartChar: kgreenlandic
Encoding: 312 312 214
Width: 960
VWidth: 0
Flags: W
LayerCount: 2
Fore
SplineSet
128 100 m 2
 128 43.521177826 171.521177826 0 228 0 c 2
 284 0 l 2
 340.478822174 0 384 43.521177826 384 100 c 2
 384 438 l 1
 502 619 l 1
 672.976816135 95.0660931295 l 2
 691.650756404 37.8424840895 743.806499714 0 804 0 c 2
 860 0 l 2
 910.173850745 0 943.043436071 46.8521086966 925.968544263 94.031165155 c 2
 673 793 l 1
 909.228424481 1193.84753562 l 2
 932.640344691 1233.5743828 906.112258623 1280 860 1280 c 2
 804 1280 l 2
 742.316810097 1280 684.546044479 1246.98906923 653.228666291 1193.84739311 c 2
 384 737 l 1
 384 1181 l 2
 384 1237.47882217 340.478822174 1281 284 1281 c 2
 228 1281 l 2
 171.521177826 1281 128 1237.47882217 128 1181 c 2
 128 100 l 2
EndSplineSet
EndChar

StartChar: l
Encoding: 108 108 215
Width: 505
VWidth: 0
Flags: W
LayerCount: 2
Fore
SplineSet
228 1792 m 2
 171.521177826 1792 128 1748.47882217 128 1692 c 2
 128 100 l 2
 128 43.521177826 171.521177826 0 228 0 c 2
 284 0 l 2
 340.478822174 0 384 43.521177826 384 100 c 2
 384 1692 l 2
 384 1748.47882217 340.478822174 1792 284 1792 c 2
 228 1792 l 2
EndSplineSet
EndChar

StartChar: less
Encoding: 60 60 219
Width: 832
VWidth: 0
Flags: W
LayerCount: 2
Fore
SplineSet
622.076807948 121.346234436 m 2
 658.166074938 96.0837475432 704 119.947435535 704 164 c 2
 704 220 l 2
 704 282.014782301 673.122789045 342.124073028 622.712560241 378.243902148 c 2
 256 641 l 1
 622.54074189 901.996644337 l 2
 673.050872883 937.962563504 704 997.993382011 704 1060 c 2
 704 1116 l 2
 704 1160.05256446 658.166074938 1183.91625246 622.076807948 1158.65376556 c 2
 145.923192052 825.346234436 l 2
 95.1444130263 789.801089118 64 729.983399028 64 668 c 2
 64 612 l 2
 64 550.016600972 95.1444130263 490.198910882 145.923192052 454.653765564 c 2
 622.076807948 121.346234436 l 2
EndSplineSet
EndChar

StartChar: logicalnot
Encoding: 172 172 220
Width: 768
VWidth: 0
Flags: W
LayerCount: 2
Fore
SplineSet
512 448 m 1
 512 319 l 2
 512 283.41834203 539.41834203 256 575 256 c 2
 577 256 l 2
 612.58165797 256 640 283.41834203 640 319 c 2
 640 540 l 2
 640 596.478822174 596.478822174 640 540 640 c 2
 223 640 l 2
 169.345118935 640 128 598.654881065 128 545 c 2
 128 543 l 2
 128 489.345118935 169.345118935 448 223 448 c 2
 512 448 l 1
EndSplineSet
EndChar

StartChar: lozenge
Encoding: 9674 9674 221
Width: 896
VWidth: 0
Flags: W
LayerCount: 2
Fore
SplineSet
288.562935903 94.9300321341 m 2
 307.498203888 37.751486686 359.767696099 0 420 0 c 2
 478 0 l 2
 538.207959856 0 590.405980985 37.8087039538 609.17704179 95.0157464068 c 2
 798.82295821 672.984253593 l 2
 818.034309175 731.533132723 818.034309175 804.466867277 798.82295821 863.015746407 c 2
 609.17704179 1440.98425359 l 2
 590.405980985 1498.19129605 538.207959856 1536 478 1536 c 2
 420 1536 l 2
 359.774585084 1536 307.525355622 1498.23227746 288.636644854 1441.04559013 c 2
 97.363355146 861.954409871 l 2
 78.0289186314 803.418261526 78.0571885331 730.59108817 97.4370640966 672.069967866 c 2
 288.562935903 94.9300321341 l 2
448 1280 m 1
 574 767 l 1
 448 256 l 1
 322 768 l 1
 448 1280 l 1
EndSplineSet
EndChar

StartChar: m
Encoding: 109 109 223
Width: 1536
VWidth: 0
Flags: W
LayerCount: 2
Fore
SplineSet
796 0 m 2
 852.478822174 0 896 43.521177826 896 100 c 2
 896 1002 l 1
 939 1038 1010 1088 1088 1088 c 0
 1152 1088 1152 1024 1152 934 c 2
 1152 100 l 2
 1152 43.521177826 1195.52117783 0 1252 0 c 2
 1308 0 l 2
 1364.47882217 0 1408 43.521177826 1408 100 c 2
 1408 931 l 2
 1408 1151 1408 1298 1216 1298 c 0
 1152 1298 1024 1297 896 1129 c 1
 872 1273 802 1298 703 1298 c 0
 547 1298 440 1202 384 1135 c 1
 384 1180 l 2
 384 1236.47882217 340.478822174 1280 284 1280 c 2
 228 1280 l 2
 171.521177826 1280 128 1236.47882217 128 1180 c 2
 128 100 l 2
 128 43.521177826 171.521177826 0 228 0 c 2
 284 0 l 2
 340.478822174 0 384 43.521177826 384 100 c 2
 384 1007 l 1
 427 1041 497 1088 576 1088 c 0
 640 1088 640 1024 640 929 c 2
 640 100 l 2
 640 43.521177826 683.521177826 0 740 0 c 2
 796 0 l 2
EndSplineSet
EndChar

StartChar: macron
Encoding: 175 175 224
Width: 640
VWidth: 0
Flags: W
LayerCount: 2
Fore
SplineSet
482 1407 m 2
 524.359116631 1407 557 1439.64088337 557 1482 c 2
 557 1484 l 2
 557 1526.35911663 524.359116631 1559 482 1559 c 2
 198 1559 l 2
 155.640883369 1559 123 1526.35911663 123 1484 c 2
 123 1482 l 2
 123 1439.64088337 155.640883369 1407 198 1407 c 2
 482 1407 l 2
EndSplineSet
EndChar

StartChar: middot
Encoding: 183 183 225
Width: 384
VWidth: 0
Flags: W
LayerCount: 2
Fore
SplineSet
220 704 m 2
 276.478822174 704 320 747.521177826 320 804 c 2
 320 860 l 2
 320 916.478822174 276.478822174 960 220 960 c 2
 164 960 l 2
 107.521177826 960 64 916.478822174 64 860 c 2
 64 804 l 2
 64 747.521177826 107.521177826 704 164 704 c 2
 220 704 l 2
EndSplineSet
EndChar

StartChar: mu
Encoding: 181 181 226
Width: 1024
VWidth: 0
Flags: W
LayerCount: 2
Fore
SplineSet
284 -256 m 2
 340.478822174 -256 384 -212.478822174 384 -156 c 2
 384 0 l 1
 465 2 589 27 640 138 c 1
 640 100 l 2
 640 43.521177826 683.521177826 0 740 0 c 2
 796 0 l 2
 852.478822174 0 896 43.521177826 896 100 c 2
 896 1180 l 2
 896 1236.47882217 852.478822174 1280 796 1280 c 2
 740 1280 l 2
 683.521177826 1280 640 1236.47882217 640 1180 c 2
 640 267 l 1
 592 227 536 177 472 177 c 0
 423 177 384 211 384 267 c 2
 384 1180 l 2
 384 1236.47882217 340.478822174 1280 284 1280 c 2
 228 1280 l 2
 171.521177826 1280 128 1236.47882217 128 1180 c 2
 128 -156 l 2
 128 -212.478822174 171.521177826 -256 228 -256 c 2
 284 -256 l 2
EndSplineSet
EndChar

StartChar: multiply
Encoding: 215 215 227
Width: 768
VWidth: 0
Flags: W
LayerCount: 2
Fore
SplineSet
640.707106781 384.707106781 m 2
 676.454187391 420.454187391 676.454187391 475.545812609 640.707106781 511.292893219 c 2
 512 640 l 1
 640.707106781 768.707106781 l 2
 676.454187391 804.454187391 676.454187391 859.545812609 640.707106781 895.292893219 c 2
 639.292893219 896.707106781 l 2
 603.545812609 932.454187391 548.454187391 932.454187391 512.707106781 896.707106781 c 2
 384 768 l 1
 255.292893219 896.707106781 l 2
 219.545812609 932.454187391 164.454187391 932.454187391 128.707106781 896.707106781 c 2
 127.292893219 895.292893219 l 2
 91.545812609 859.545812609 91.545812609 804.454187391 127.292893219 768.707106781 c 2
 256 640 l 1
 127.292893219 511.292893219 l 2
 91.545812609 475.545812609 91.545812609 420.454187391 127.292893219 384.707106781 c 2
 128.707106781 383.292893219 l 2
 164.454187391 347.545812609 219.545812609 347.545812609 255.292893219 383.292893219 c 2
 384 512 l 1
 512.707106781 383.292893219 l 2
 548.454187391 347.545812609 603.545812609 347.545812609 639.292893219 383.292893219 c 2
 640.707106781 384.707106781 l 2
EndSplineSet
EndChar

StartChar: n
Encoding: 110 110 228
Width: 992
VWidth: 0
Flags: HW
PickledData: "(dp1
S'com.typemytype.robofont.layerData'
p2
(dp3
s."
LayerCount: 2
Fore
SplineSet
384 100 m 2
 384 1013 l 1
 432 1053 479 1088 544 1088 c 0
 640 1088 640 1024 640 960 c 2
 640 100 l 2
 640 31.4218458413 703.886964307 -2.77667024891 767.830371573 -2.77667024891 c 0
 831.886864398 -2.77667024891 896 31.5429147126 896 100 c 2
 896 1031 l 2
 896 1203 806 1298 694 1298 c 0
 633 1298 506 1289 384 1133 c 1
 384 1180 l 2
 384 1248.43294914 319.842331785 1282.77641228 255.763643278 1282.77641228 c 0
 191.842525759 1282.77641228 128 1248.60164423 128 1180 c 2
 128 100 l 2
 128 31.4586258017 192.020876536 -2.82883930881 256.031312251 -2.82883930881 c 0
 320.020873132 -2.82883930881 384 31.4362660595 384 100 c 2
EndSplineSet
EndChar

StartChar: nine
Encoding: 57 57 232
Width: 1152
VWidth: 0
Flags: W
LayerCount: 2
Fore
SplineSet
128 1216 m 0
 128 960 192 704 512 704 c 0
 666 704 737 780 768 832 c 1
 768 576 l 2
 768 320 704 192 576 192 c 0
 471.001708984 192 410.973109603 233.115146637 391.279996084 348.299792062 c 0
 380.116386426 413.595532066 339.330576228 448 273.087389081 448 c 2
 221.166768945 448 l 2
 171.335426101 448 127.709035113 397.594260425 134.857169786 348.278270115 c 0
 171.202958107 97.5235450566 348.28125 -18 576 -18 c 0
 896 -18 1024 256 1024 640 c 2
 1024 1216 l 2
 1024 1600 832 1810 576 1810 c 0
 256 1810 128 1536 128 1216 c 0
576 896 m 0
 384 896 384 1088 384 1280 c 0
 384 1472 448 1600 576 1600 c 0
 704 1600 768 1472 768 1280 c 2
 768 1024 l 1
 739 971 678 896 576 896 c 0
EndSplineSet
EndChar

StartChar: numbersign
Encoding: 35 35 234
Width: 1088
VWidth: 0
Flags: W
LayerCount: 2
Fore
SplineSet
940 1216 m 1
 1007.90599193 1692.99818721 l 2
 1015.55080733 1746.69835389 976.241599393 1792 922 1792 c 2
 866 1792 l 2
 807.637816287 1792 760.131562812 1750.77780707 751.905991929 1692.99818721 c 2
 684 1216 l 1
 492 1216 l 1
 559.905991929 1692.99818721 l 2
 567.550807325 1746.69835389 528.241599393 1792 474 1792 c 2
 418 1792 l 2
 359.637816287 1792 312.131562812 1750.77780707 303.905991929 1692.99818721 c 2
 236 1216 l 1
 159 1216 l 2
 105.345118935 1216 64 1174.65488107 64 1121 c 2
 64 1119 l 2
 64 1065.34511893 105.345118935 1024 159 1024 c 2
 209 1024 l 1
 181 832 l 1
 159 832 l 2
 105.345118935 832 64 790.654881065 64 737 c 2
 64 729 l 2
 64 678.733848265 102.733848265 640 153 640 c 2
 154 640 l 1
 77.9254831399 99.0256578838 l 2
 70.3680306981 45.2837738535 109.729334014 0 164 0 c 2
 220 0 l 2
 278.341606362 0 325.801132582 41.2524983638 333.92548314 99.0256578838 c 2
 410 640 l 1
 602 640 l 1
 525.92548314 99.0256578838 l 2
 518.368030698 45.2837738535 557.729334014 0 612 0 c 2
 668 0 l 2
 726.341606362 0 773.801132582 41.2524983638 781.92548314 99.0256578838 c 2
 858 640 l 1
 929 640 l 2
 982.654881065 640 1024 681.345118935 1024 735 c 2
 1024 737 l 2
 1024 790.654881065 982.654881065 832 929 832 c 2
 885 832 l 1
 913 1024 l 1
 929 1024 l 2
 982.654881065 1024 1024 1065.34511893 1024 1119 c 2
 1024 1133 l 2
 1024 1179.8774224 987.877422404 1216 941 1216 c 2
 940 1216 l 1
657 1024 m 1
 630 832 l 1
 437 832 l 1
 465 1024 l 1
 657 1024 l 1
EndSplineSet
EndChar

StartChar: o
Encoding: 111 111 235
Width: 960
VWidth: 0
Flags: HW
LayerCount: 2
Fore
SplineSet
480 -18 m 0
 864 -18 864 320 864 448 c 2
 864 832 l 2
 864 960 864 1298 480 1298 c 0
 96 1298 96 960 96 832 c 2
 96 448 l 2
 96 320 96 -18 480 -18 c 0
480 1098 m 0
 608 1098 608 965 608 832 c 2
 608 448 l 2
 608 315 608 182 480 182 c 0
 352 182 352 315 352 448 c 2
 352 832 l 2
 352 965 352 1098 480 1098 c 0
EndSplineSet
EndChar

StartChar: oe
Encoding: 339 339 239
Width: 1536
VWidth: 0
Flags: W
LayerCount: 2
Fore
SplineSet
512 -18 m 0
 665 -18 736 67 768 128 c 1
 800 67 870 -18 1024 -18 c 0
 1252.54553223 -18 1378.28409025 97.4601402581 1403.32546826 348.07183322 c 0
 1408.45791692 399.436883739 1364.50544706 448 1312.88461363 448 c 2
 1257.06770622 448 l 2
 1196.93231528 448 1154.14981949 408.045521124 1150.04366393 348.050481915 c 0
 1144.0753727 260.84777832 1120.07519531 192 1024 192 c 0
 896 192 896 384 896 576 c 2
 896 640 l 1
 1394 640 l 2
 1401.80099666 640 1408 646.199003341 1408 654 c 2
 1408 670 l 2
 1408 1152 1280 1298 1025 1298 c 0
 868 1298 798 1210 768 1152 c 1
 737 1211 666 1298 512 1298 c 0
 128 1298 128 960 128 832 c 2
 128 448 l 2
 128 320 128 -18 512 -18 c 0
512 1088 m 0
 640 1088 640 960 640 832 c 2
 640 448 l 2
 640 320 640 192 512 192 c 0
 384 192 384 320 384 448 c 2
 384 832 l 2
 384 960 384 1088 512 1088 c 0
1152 768 m 1
 896 768 l 1
 896 896 897 1088 1025 1088 c 0
 1156 1088 1152 896 1152 768 c 1
EndSplineSet
EndChar

StartChar: ogonek
Encoding: 731 731 240
Width: 537
VWidth: 0
Flags: W
LayerCount: 2
Fore
SplineSet
-46 -321 m 0
 -46 -408 -3 -464 82 -489 c 0
 127.715087891 -502.80078125 213.60566175 -510.649638653 339.02999346 -512.546572208 c 0
 374.109970707 -513.077126249 402 -485.605719719 402 -450.521730618 c 2
 402 -439.844103491 l 2
 402 -410.810485137 376.011723081 -386.608105028 347.051530513 -388.671655659 c 0
 329.57072258 -389.917245865 309.965820312 -391 290 -391 c 0
 220 -391 146 -378 146 -317 c 0
 146 -268 169 -212 216 -151 c 0
 256.500000038 -97.9999999506 287.000000057 -58.249999926 307.375000057 -31.6249999256 c 0
 315.737796177 -20.6969289221 301.068823546 9 287.308042507 9 c 2
 249.042895021 9 l 2
 230.459404009 9 169.300838795 -9.27281848108 153.763271332 -19.4674315453 c 0
 73.6411132812 -72.0377197266 -46 -188.7421875 -46 -321 c 0
EndSplineSet
EndChar

StartChar: one
Encoding: 49 49 243
Width: 640
VWidth: 0
Flags: W
LayerCount: 2
Fore
SplineSet
256 1408 m 1
 256 100 l 2
 256 43.521177826 299.521177826 0 356 0 c 2
 412 0 l 2
 468.478822174 0 512 43.521177826 512 100 c 2
 512 1697 l 2
 512 1750.65488107 470.654881065 1792 417 1792 c 2
 450.126777366 1792 l 2
 359.574697495 1792 328.029754437 1779.12612123 263.334922762 1715.76794951 c 0
 230.11595071 1683.23531466 190.420841882 1657.41300011 151.372202395 1637.30250968 c 0
 90.6670568943 1606.03867401 64 1562.30900273 64 1497.30483847 c 2
 64 1503 l 2
 64 1449.34511893 105.345118935 1408 159 1408 c 2
 256 1408 l 1
EndSplineSet
EndChar

StartChar: onesuperior
Encoding: 185 185 246
Width: 512
VWidth: 0
Flags: W
LayerCount: 2
Fore
SplineSet
192 1216 m 1
 192 735 l 2
 192 681.345118935 233.345118935 640 287 640 c 2
 289 640 l 2
 342.654881065 640 384 681.345118935 384 735 c 2
 384 1505 l 2
 384 1522.42610435 370.426104353 1536 353 1536 c 2
 352.739969122 1536 l 2
 332.067243792 1536 313.680940154 1527.8129696 299.84947087 1512.44898476 c 0
 255.465217507 1463.14699221 200.988982514 1419.15075465 119.660166777 1373.44420734 c 0
 83.7081164938 1353.23926433 64 1319.55616363 64 1279.16336274 c 2
 64 1279 l 2
 64 1243.41834203 91.4183420304 1216 127 1216 c 2
 192 1216 l 1
EndSplineSet
EndChar

StartChar: ordfeminine
Encoding: 170 170 247
Width: 842
VWidth: 0
Flags: W
LayerCount: 2
Fore
SplineSet
535.116582978 655 m 2
 593.447458217 655 627.318255302 690.443862471 624.672031652 748.714682841 c 0
 623.208431482 780.943698168 623 822.279785156 623 883 c 2
 623 1176 l 2
 623 1403 570 1518 358 1518 c 0
 229.129760742 1518 128.601210609 1442.65258257 96.6453516609 1310.34906294 c 0
 86.8114462025 1269.63476682 123.523338943 1223 163.547543059 1223 c 2
 157.255941986 1223 l 2
 223.487685658 1223 254.873149579 1246.04470107 274.705864202 1309.23732169 c 0
 287.558893204 1350.190696 312.708496094 1374 354 1374 c 0
 381 1374 430 1362 430 1235 c 2
 430 1141 l 1
 84 1033 53 951 53 838 c 0
 53 726 145 645 246 645 c 0
 313 645 383 679 430 766 c 1
 432.517722534 748.533299922 l 2
 440.389114792 693.925516131 485.32782525 655 540.5 655 c 2
 535.116582978 655 l 2
430 1063 m 1
 430 874 l 1
 407 827 360 799 319 799 c 0
 280 799 248 823 248 883 c 0
 248 948 309 996 430 1063 c 1
EndSplineSet
EndChar

StartChar: ordmasculine
Encoding: 186 186 248
Width: 899
VWidth: 0
Flags: W
LayerCount: 2
Fore
SplineSet
350 -14 m 0
 599 -14 700 164 700 410 c 2
 700 729 l 2
 700 975 599 1153 350 1153 c 0
 81 1153 -1 984 -1 729 c 2
 -1 410 l 2
 -1 153 81 -14 350 -14 c 0
345 952 m 0
 434 952 474 922 474 688 c 2
 474 451 l 2
 474 216 434 186 345 186 c 0
 261 186 212 219 212 451 c 2
 212 688 l 2
 212 920 261 952 345 952 c 0
EndSplineSet
EndChar

StartChar: oslash
Encoding: 248 248 249
Width: 1024
VWidth: 0
Flags: W
LayerCount: 2
Fore
SplineSet
512 1088 m 0
 573 1088 605 1059 622 1015 c 1
 386 350 l 1
 385 385 384 416 384 448 c 2
 384 832 l 2
 384 959 385 1088 512 1088 c 0
280 43 m 1
 209.926400178 -156.376075685 l 2
 202.940453864 -176.252756268 216.93140069 -196 238 -196 c 2
 240 -196 l 2
 265.379743835 -196 287.58017666 -180.344504369 296.101312122 -156.437985435 c 2
 354 6 l 1
 397 -10 450 -18 512 -18 c 0
 896 -18 896 320 896 448 c 2
 896 832 l 2
 896 917 894 1095 784 1205 c 1
 859.990955477 1417.27908215 l 2
 868.015586014 1439.6957131 852.309662715 1462 828.5 1462 c 2
 826.5 1462 l 2
 797.809213062 1462 772.739915494 1444.2630939 763.191044408 1417.20795915 c 2
 707 1258 l 1
 652 1283 594 1298 512 1298 c 0
 129 1298 128 958 128 832 c 2
 128 448 l 2
 128 358 128 141 280 43 c 1
640 448 m 2
 640 321 639 192 512 192 c 0
 480 192 455 199 434.5 217 c 1
 640 803 l 1
 640 448 l 2
EndSplineSet
EndChar

StartChar: p
Encoding: 112 112 251
Width: 1056
VWidth: 0
Flags: W
LayerCount: 2
Fore
SplineSet
284 -384 m 2
 340.478822174 -384 384 -340.478822174 384 -284 c 2
 384 115 l 1
 451 46 543 -18 640 -18 c 0
 889 -18 960 344 960 576 c 0
 960 1104 883 1298 644 1298 c 0
 592 1298 517 1293 384 1152 c 1
 384 1180 l 2
 384 1236.47882217 340.478822174 1280 284 1280 c 2
 228 1280 l 2
 171.521177826 1280 128 1236.47882217 128 1180 c 2
 128 -284 l 2
 128 -340.478822174 171.521177826 -384 228 -384 c 2
 284 -384 l 2
553 1101 m 0
 681 1101 704 928 704 704 c 0
 704 323 680 192 576 192 c 0
 535 192 460 200 384 244 c 1
 384 1036 l 1
 437 1068 489 1101 553 1101 c 0
EndSplineSet
EndChar

StartChar: paragraph
Encoding: 182 182 252
Width: 952
VWidth: 0
Flags: W
LayerCount: 2
Fore
SplineSet
481.5 0 m 2
 536.56685162 0 579 42.4331483803 579 97.5 c 2
 579 876 l 1
 718 876 l 1
 718 88 l 2
 718 38.2986364869 756.298636487 0 806 0 c 2
 808 0 l 2
 857.701363513 0 896 38.2986364869 896 88 c 2
 896 1436 l 2
 896 1492.47882217 852.478822174 1536 796 1536 c 2
 423 1536 l 2
 148 1536 16 1415 16 1204 c 0
 16 992 178 876 382 876 c 1
 382 97.5 l 2
 382 42.4331483803 424.43314838 0 479.5 0 c 2
 481.5 0 l 2
EndSplineSet
EndChar

StartChar: parenleft
Encoding: 40 40 253
Width: 640
VWidth: 0
Flags: W
LayerCount: 2
Fore
SplineSet
481.344822834 -56.2897192879 m 0
 527.200558484 -64.5305332464 576 -23.7191650964 576 21.6996342974 c 2
 576 -41.2154201943 l 2
 576 81.6707433086 578.133793526 76.9521750879 485.861809194 158.111833096 c 0
 407.788833618 226.782470703 384 426.78125 384 896 c 0
 384 1365.21875 407.788833618 1565.2175293 485.861809194 1633.8881669 c 0
 577.688628193 1714.65627089 576 1710.92211985 576 1808.1710044 c 2
 576 1769.12882804 l 2
 576 1815.10773095 526.598764974 1856.42238389 481.344822834 1848.28971929 c 0
 251.10476619 1806.91287851 128 1586.68847656 128 896 c 0
 128 205.311523438 251.10476619 -14.9128785133 481.344822834 -56.2897192879 c 0
EndSplineSet
EndChar

StartChar: parenright
Encoding: 41 41 254
Width: 640
VWidth: 0
Flags: W
LayerCount: 2
Fore
SplineSet
158.655177166 1848.28971929 m 0
 112.799441516 1856.53053325 64 1815.7191651 64 1770.3003657 c 2
 64 1833.21542019 l 2
 64 1710.32925669 61.8662064741 1715.04782491 154.138190806 1633.8881669 c 0
 232.211166382 1565.2175293 256 1365.21875 256 896 c 0
 256 426.78125 232.211166382 226.782470703 154.138190806 158.111833096 c 0
 62.3113718067 77.3437291052 64 81.0778801526 64 -16.1710044007 c 2
 64 22.8711719564 l 2
 64 -23.1077309524 113.401235026 -64.4223838887 158.655177166 -56.2897192879 c 0
 388.89523381 -14.9128785133 512 205.311523438 512 896 c 0
 512 1586.68847656 388.89523381 1806.91287851 158.655177166 1848.28971929 c 0
EndSplineSet
EndChar

StartChar: percent
Encoding: 37 37 255
Width: 1999
VWidth: 0
Flags: W
LayerCount: 2
Fore
SplineSet
444 541 m 0
 631 541 811 678 811 1032 c 0
 811 1477 547 1516 444 1516 c 0
 341 1516 78 1477 78 1032 c 0
 78 678 257 541 444 541 c 0
444 1321 m 0
 564 1321 578 1139 578 1032 c 0
 578 924 557 735 444 735 c 0
 332 735 311 926 311 1032 c 0
 311 1139 326 1321 444 1321 c 0
1554 0 m 0
 1741 0 1921 137 1921 492 c 0
 1921 936 1657 975 1554 975 c 0
 1451 975 1188 936 1188 492 c 0
 1188 137 1367 0 1554 0 c 0
1554 780 m 0
 1674 780 1688 599 1688 492 c 0
 1688 383 1667 195 1554 195 c 0
 1442 195 1421 385 1421 492 c 0
 1421 599 1436 780 1554 780 c 0
871 0 m 2
 929.856760198 0 978.514642341 40.4511598333 989.264585815 98.3178768333 c 2
 1234.73541419 1419.68212317 l 2
 1244.49854143 1472.23682939 1206.45386609 1518 1153 1518 c 2
 1134 1518 l 2
 1075.13603113 1518 1026.46092467 1477.56071958 1015.6728179 1419.69377234 c 2
 769.3271821 98.3062276577 l 2
 759.532644928 45.7687455863 797.557320606 0 851 0 c 2
 871 0 l 2
EndSplineSet
EndChar

StartChar: period
Encoding: 46 46 256
Width: 384
VWidth: 0
Flags: W
LayerCount: 2
Fore
SplineSet
220 0 m 2
 276.478822174 0 320 43.521177826 320 100 c 2
 320 156 l 2
 320 212.478822174 276.478822174 256 220 256 c 2
 164 256 l 2
 107.521177826 256 64 212.478822174 64 156 c 2
 64 100 l 2
 64 43.521177826 107.521177826 0 164 0 c 2
 220 0 l 2
EndSplineSet
EndChar

StartChar: periodcentered
Encoding: 65540 -1 257
Width: 384
VWidth: 0
Flags: W
LayerCount: 2
Fore
SplineSet
220 607 m 2
 276.478822174 607 320 650.521177826 320 707 c 2
 320 763 l 2
 320 819.478822174 276.478822174 863 220 863 c 2
 164 863 l 2
 107.521177826 863 64 819.478822174 64 763 c 2
 64 707 l 2
 64 650.521177826 107.521177826 607 164 607 c 2
 220 607 l 2
EndSplineSet
EndChar

StartChar: perthousand
Encoding: 8240 8240 258
Width: 2834
VWidth: 0
Flags: W
LayerCount: 2
Fore
SplineSet
444 541 m 0
 631 541 811 678 811 1032 c 0
 811 1477 547 1516 444 1516 c 0
 341 1516 78 1477 78 1032 c 0
 78 678 257 541 444 541 c 0
444 1321 m 0
 564 1321 578 1139 578 1032 c 0
 578 924 557 735 444 735 c 0
 332 735 311 926 311 1032 c 0
 311 1139 326 1321 444 1321 c 0
2390 0 m 0
 2577 0 2757 137 2757 492 c 0
 2757 936 2492 975 2390 975 c 0
 2288 975 2023 936 2023 492 c 0
 2023 137 2203 0 2390 0 c 0
2390 780 m 0
 2509 780 2523 599 2523 492 c 0
 2523 383 2503 195 2390 195 c 0
 2277 195 2257 385 2257 492 c 0
 2257 599 2271 780 2390 780 c 0
1554 0 m 0
 1741 0 1921 137 1921 492 c 0
 1921 936 1657 975 1554 975 c 0
 1451 975 1188 936 1188 492 c 0
 1188 137 1367 0 1554 0 c 0
1554 780 m 0
 1674 780 1688 599 1688 492 c 0
 1688 383 1667 195 1554 195 c 0
 1442 195 1421 385 1421 492 c 0
 1421 599 1436 780 1554 780 c 0
871 0 m 2
 929.856760198 0 978.514642341 40.4511598333 989.264585815 98.3178768333 c 2
 1234.73541419 1419.68212317 l 2
 1244.49854143 1472.23682939 1206.45386609 1518 1153 1518 c 2
 1134 1518 l 2
 1075.13603113 1518 1026.46092467 1477.56071958 1015.6728179 1419.69377234 c 2
 769.3271821 98.3062276577 l 2
 759.532644928 45.7687455863 797.557320606 0 851 0 c 2
 871 0 l 2
EndSplineSet
EndChar

StartChar: plus
Encoding: 43 43 259
Width: 704
VWidth: 0
Flags: W
LayerCount: 2
Fore
SplineSet
448 576 m 1
 545 576 l 2
 598.654881065 576 640 617.345118935 640 671 c 2
 640 673 l 2
 640 726.654881065 598.654881065 768 545 768 c 2
 448 768 l 1
 448 865 l 2
 448 918.654881065 406.654881065 960 353 960 c 2
 351 960 l 2
 297.345118935 960 256 918.654881065 256 865 c 2
 256 768 l 1
 159 768 l 2
 105.345118935 768 64 726.654881065 64 673 c 2
 64 671 l 2
 64 617.345118935 105.345118935 576 159 576 c 2
 256 576 l 1
 256 479 l 2
 256 425.345118935 297.345118935 384 351 384 c 2
 353 384 l 2
 406.654881065 384 448 425.345118935 448 479 c 2
 448 576 l 1
EndSplineSet
EndChar

StartChar: plusminus
Encoding: 177 177 260
Width: 832
VWidth: 0
Flags: W
LayerCount: 2
Fore
SplineSet
609 0 m 2
 662.654881065 0 704 41.3451189347 704 95 c 2
 704 97 l 2
 704 150.654881065 662.654881065 192 609 192 c 2
 223 192 l 2
 169.345118935 192 128 150.654881065 128 97 c 2
 128 95 l 2
 128 41.3451189347 169.345118935 0 223 0 c 2
 609 0 l 2
512 576 m 1
 609 576 l 2
 662.654881065 576 704 617.345118935 704 671 c 2
 704 673 l 2
 704 726.654881065 662.654881065 768 609 768 c 2
 512 768 l 1
 512 865 l 2
 512 918.654881065 470.654881065 960 417 960 c 2
 415 960 l 2
 361.345118935 960 320 918.654881065 320 865 c 2
 320 768 l 1
 223 768 l 2
 169.345118935 768 128 726.654881065 128 673 c 2
 128 671 l 2
 128 617.345118935 169.345118935 576 223 576 c 2
 320 576 l 1
 320 479 l 2
 320 425.345118935 361.345118935 384 415 384 c 2
 417 384 l 2
 470.654881065 384 512 425.345118935 512 479 c 2
 512 576 l 1
EndSplineSet
EndChar

StartChar: product
Encoding: 8719 8719 261
Width: 1216
VWidth: 0
Flags: W
LayerCount: 2
Fore
SplineSet
128 100 m 2
 128 43.521177826 171.521177826 0 228 0 c 2
 284 0 l 2
 340.478822174 0 384 43.521177826 384 100 c 2
 384 1600 l 1
 832 1600 l 1
 832 100 l 2
 832 43.521177826 875.521177826 0 932 0 c 2
 988 0 l 2
 1044.47882217 0 1088 43.521177826 1088 100 c 2
 1088 1692 l 2
 1088 1748.47882217 1044.47882217 1792 988 1792 c 2
 228 1792 l 2
 171.521177826 1792 128 1748.47882217 128 1692 c 2
 128 100 l 2
EndSplineSet
EndChar

StartChar: q
Encoding: 113 113 262
Width: 1056
VWidth: 0
Flags: W
LayerCount: 2
Fore
SplineSet
772 1280 m 2
 715.521177826 1280 672 1236.47882217 672 1180 c 2
 672 1152 l 1
 539 1293 464 1298 412 1298 c 0
 173 1298 96 1104 96 576 c 0
 96 344 167 -18 416 -18 c 0
 513 -18 605 46 672 115 c 1
 672 -284 l 2
 672 -340.478822174 715.521177826 -384 772 -384 c 2
 828 -384 l 2
 884.478822174 -384 928 -340.478822174 928 -284 c 2
 928 1180 l 2
 928 1236.47882217 884.478822174 1280 828 1280 c 2
 772 1280 l 2
480 192 m 0
 376 192 352 323 352 704 c 0
 352 928 375 1101 503 1101 c 0
 567 1101 619 1068 672 1036 c 1
 672 244 l 1
 596 200 521 192 480 192 c 0
EndSplineSet
EndChar

StartChar: question
Encoding: 63 63 263
Width: 1152
VWidth: 0
Flags: W
LayerCount: 2
Fore
SplineSet
640 640 m 1
 899 764 1025 959 1025 1216 c 0
 1025 1472 897 1664 576 1664 c 0
 320 1664 128 1536 128 1216 c 2
 128 1183 l 2
 128 1165.57389565 141.573895647 1152 159 1152 c 2
 272.691956786 1152 l 2
 339.318600043 1152 379.965153862 1186.09097113 391.564189911 1251.70020794 c 0
 411.927646637 1366.88485336 473.40625 1408 576 1408 c 0
 704 1408 768 1344 768 1216 c 0
 768 1100.0859375 715.515352011 931.687227011 467.959131798 758.332843277 c 0
 412.588110352 719.558583065 384 664.63885315 384 597.041565698 c 2
 384 484 l 2
 384 427.521177826 427.521177826 384 484 384 c 2
 540 384 l 2
 596.478822174 384 640 427.521177826 640 484 c 2
 640 640 l 1
540 0 m 2
 596.478822174 0 640 43.521177826 640 100 c 2
 640 156 l 2
 640 212.478822174 596.478822174 256 540 256 c 2
 484 256 l 2
 427.521177826 256 384 212.478822174 384 156 c 2
 384 100 l 2
 384 43.521177826 427.521177826 0 484 0 c 2
 540 0 l 2
EndSplineSet
EndChar

StartChar: questiondown
Encoding: 191 191 264
Width: 891
VWidth: 0
Flags: W
LayerCount: 2
Fore
SplineSet
349 812 m 1
 298 760 253 707 214 653 c 0
 147 560 80 445 80 346 c 0
 80 145 165 -5 430 -5 c 0
 681 -5 790 171 790 396 c 2
 790 409.5 l 2
 790 415.863593585 784.863593585 421 778.5 421 c 2
 685.767456077 421 l 2
 616.202570861 421 576.819680927 389.389920312 561.767214037 321.473085171 c 0
 546.762312651 253.770865917 510.266113281 202 430 202 c 0
 347 202 318 253 318 328 c 0
 318 484 565 780 565 784 c 2
 565 929 l 2
 565 985.478822174 521.478822174 1029 465 1029 c 2
 449 1029 l 2
 392.521177826 1029 349 985.478822174 349 929 c 2
 349 812 l 1
443 1329 m 2
 386.521177826 1329 343 1285.47882217 343 1229 c 2
 343 1206 l 2
 343 1149.52117783 386.521177826 1106 443 1106 c 2
 464 1106 l 2
 520.478822174 1106 564 1149.52117783 564 1206 c 2
 564 1229 l 2
 564 1285.47882217 520.478822174 1329 464 1329 c 2
 443 1329 l 2
EndSplineSet
EndChar

StartChar: quotedbl
Encoding: 34 34 265
Width: 704
VWidth: 0
Flags: W
LayerCount: 2
Fore
SplineSet
191 1408 m 2
 227.9456198 1408 258.28331372 1433.69988232 264.3571362 1470.1428172 c 2
 301.560101269 1693.36060762 l 2
 310.409813192 1746.45887915 271.830696088 1792 218 1792 c 2
 162 1792 l 2
 108.169303912 1792 69.5901868077 1746.45887915 78.4398987305 1693.36060762 c 2
 115.6428638 1470.1428172 l 2
 121.71668628 1433.69988232 152.0543802 1408 189 1408 c 2
 191 1408 l 2
514 1408 m 2
 550.9456198 1408 581.28331372 1433.69988232 587.3571362 1470.1428172 c 2
 624.560101269 1693.36060762 l 2
 633.409813192 1746.45887915 594.830696088 1792 541 1792 c 2
 485 1792 l 2
 431.169303912 1792 392.590186808 1746.45887915 401.439898731 1693.36060762 c 2
 438.6428638 1470.1428172 l 2
 444.71668628 1433.69988232 475.0543802 1408 512 1408 c 2
 514 1408 l 2
EndSplineSet
EndChar

StartChar: quotedblbase
Encoding: 8222 8222 266
Width: 704
VWidth: 0
Flags: W
LayerCount: 2
Fore
SplineSet
191 -320 m 2
 227.9456198 -320 258.28331372 -294.300117681 264.3571362 -257.857182799 c 2
 301.560101269 -34.6393923832 l 2
 310.409813192 18.458879154 271.830696088 64 218 64 c 2
 162 64 l 2
 108.169303912 64 69.5901868077 18.458879154 78.4398987305 -34.6393923832 c 2
 115.6428638 -257.857182799 l 2
 121.71668628 -294.300117681 152.0543802 -320 189 -320 c 2
 191 -320 l 2
514 -320 m 2
 550.9456198 -320 581.28331372 -294.300117681 587.3571362 -257.857182799 c 2
 624.560101269 -34.6393923832 l 2
 633.409813192 18.458879154 594.830696088 64 541 64 c 2
 485 64 l 2
 431.169303912 64 392.590186808 18.458879154 401.439898731 -34.6393923832 c 2
 438.6428638 -257.857182799 l 2
 444.71668628 -294.300117681 475.0543802 -320 512 -320 c 2
 514 -320 l 2
EndSplineSet
EndChar

StartChar: quotedblleft
Encoding: 8220 8220 267
Width: 896
VWidth: 0
Flags: W
LayerCount: 2
Fore
SplineSet
256 1536 m 1
 256 1570.65087891 256 1627.8331008 314.440670863 1652.30196899 c 0
 356.906916354 1670.08241108 367.15275038 1697.69449924 346.563791557 1738.87241689 c 2
 345.349141879 1741.30171624 l 2
 330.904586575 1770.19082685 281.025436807 1792.51994927 249.856689453 1784.05029297 c 0
 141.104949147 1754.4985804 129.409357934 1639.06688135 128.151567913 1380.00963057 c 0
 127.878525038 1323.77310846 171.439619667 1280 227.676804615 1280 c 2
 284 1280 l 2
 340.478822174 1280 384 1323.52117783 384 1380 c 2
 384 1436 l 2
 384 1492.47882217 340.478822174 1536 284 1536 c 2
 256 1536 l 1
640 1536 m 1
 640 1570.65087891 640 1627.8331008 698.440670863 1652.30196899 c 0
 740.906916354 1670.08241108 751.15275038 1697.69449924 730.563791557 1738.87241689 c 2
 729.349141879 1741.30171624 l 2
 714.904586575 1770.19082685 665.025436807 1792.51994927 633.856689453 1784.05029297 c 0
 525.104949147 1754.4985804 513.409357934 1639.06688135 512.151567913 1380.00963057 c 0
 511.878525038 1323.77310846 555.439619667 1280 611.676804615 1280 c 2
 668 1280 l 2
 724.478822174 1280 768 1323.52117783 768 1380 c 2
 768 1436 l 2
 768 1492.47882217 724.478822174 1536 668 1536 c 2
 640 1536 l 1
EndSplineSet
EndChar

StartChar: quotedblright
Encoding: 8221 8221 268
Width: 896
VWidth: 0
Flags: W
LayerCount: 2
Fore
SplineSet
256 1536 m 1
 256 1501.34912109 256 1444.1668992 197.559329137 1419.69803101 c 0
 155.093083646 1401.91758892 144.84724962 1374.30550076 165.436208443 1333.12758311 c 2
 166.650858121 1330.69828376 l 2
 181.095413425 1301.80917315 230.974563193 1279.48005073 262.143310547 1287.94970703 c 0
 370.895050853 1317.5014196 382.590642066 1432.93311865 383.848432087 1691.99036943 c 0
 384.121474962 1748.22689154 340.560380333 1792 284.323195385 1792 c 2
 228 1792 l 2
 171.521177826 1792 128 1748.47882217 128 1692 c 2
 128 1636 l 2
 128 1579.52117783 171.521177826 1536 228 1536 c 2
 256 1536 l 1
640 1536 m 1
 640 1501.34912109 640 1444.1668992 581.559329137 1419.69803101 c 0
 539.093083646 1401.91758892 528.84724962 1374.30550076 549.436208443 1333.12758311 c 2
 550.650858121 1330.69828376 l 2
 565.095413425 1301.80917315 614.974563193 1279.48005073 646.143310547 1287.94970703 c 0
 754.895050853 1317.5014196 766.590642066 1432.93311865 767.848432087 1691.99036943 c 0
 768.121474962 1748.22689154 724.560380333 1792 668.323195385 1792 c 2
 612 1792 l 2
 555.521177826 1792 512 1748.47882217 512 1692 c 2
 512 1636 l 2
 512 1579.52117783 555.521177826 1536 612 1536 c 2
 640 1536 l 1
EndSplineSet
EndChar

StartChar: quoteleft
Encoding: 8216 8216 269
Width: 512
VWidth: 0
Flags: W
LayerCount: 2
Fore
SplineSet
256 1536 m 1
 256 1570.65087891 256 1627.8331008 314.440670863 1652.30196899 c 0
 356.906916354 1670.08241108 367.15275038 1697.69449924 346.563791557 1738.87241689 c 2
 345.349141879 1741.30171624 l 2
 330.904586575 1770.19082685 281.025436807 1792.51994927 249.856689453 1784.05029297 c 0
 141.104949147 1754.4985804 129.409357934 1639.06688135 128.151567913 1380.00963057 c 0
 127.878525038 1323.77310846 171.439619667 1280 227.676804615 1280 c 2
 284 1280 l 2
 340.478822174 1280 384 1323.52117783 384 1380 c 2
 384 1436 l 2
 384 1492.47882217 340.478822174 1536 284 1536 c 2
 256 1536 l 1
EndSplineSet
EndChar

StartChar: quoteright
Encoding: 8217 8217 270
Width: 512
VWidth: 0
Flags: W
LayerCount: 2
Fore
SplineSet
256 1536 m 1
 256 1501.34912109 256 1444.1668992 197.559329137 1419.69803101 c 0
 155.093083646 1401.91758892 144.84724962 1374.30550076 165.436208443 1333.12758311 c 2
 166.650858121 1330.69828376 l 2
 181.095413425 1301.80917315 230.974563193 1279.48005073 262.143310547 1287.94970703 c 0
 370.895050853 1317.5014196 382.590642066 1432.93311865 383.848432087 1691.99036943 c 0
 384.121474962 1748.22689154 340.560380333 1792 284.323195385 1792 c 2
 228 1792 l 2
 171.521177826 1792 128 1748.47882217 128 1692 c 2
 128 1636 l 2
 128 1579.52117783 171.521177826 1536 228 1536 c 2
 256 1536 l 1
EndSplineSet
EndChar

StartChar: quotesinglbase
Encoding: 8218 8218 271
Width: 384
VWidth: 0
Flags: W
LayerCount: 2
Fore
SplineSet
191 -321 m 2
 227.9456198 -321 258.28331372 -295.300117681 264.3571362 -258.857182799 c 2
 301.560101269 -35.6393923832 l 2
 310.409813192 17.458879154 271.830696088 63 218 63 c 2
 162 63 l 2
 108.169303912 63 69.5901868077 17.458879154 78.4398987305 -35.6393923832 c 2
 115.6428638 -258.857182799 l 2
 121.71668628 -295.300117681 152.0543802 -321 189 -321 c 2
 191 -321 l 2
EndSplineSet
EndChar

StartChar: quotesingle
Encoding: 39 39 272
Width: 384
VWidth: 0
Flags: W
LayerCount: 2
Fore
SplineSet
191 1408 m 2
 227.9456198 1408 258.28331372 1433.69988232 264.3571362 1470.1428172 c 2
 301.560101269 1693.36060762 l 2
 310.409813192 1746.45887915 271.830696088 1792 218 1792 c 2
 162 1792 l 2
 108.169303912 1792 69.5901868077 1746.45887915 78.4398987305 1693.36060762 c 2
 115.6428638 1470.1428172 l 2
 121.71668628 1433.69988232 152.0543802 1408 189 1408 c 2
 191 1408 l 2
EndSplineSet
EndChar

StartChar: r
Encoding: 114 114 273
Width: 691
VWidth: 0
Flags: W
LayerCount: 2
Fore
SplineSet
128 100 m 2
 128 43.521177826 171.521177826 0 228 0 c 2
 284 0 l 2
 340.478822174 0 384 43.521177826 384 100 c 2
 384 864 l 2
 384 969 461 1039 562 1039 c 0
 585.02734375 1039 610.411392212 1036.11958313 635.472212076 1031.02873272 c 0
 675.603483223 1022.87647356 704 1046.08450651 704 1087.03543144 c 2
 704 1274.42211316 l 2
 704 1285.68982746 695.680194688 1294.9425788 684.475821622 1296.1356462 c 0
 671.687828064 1297.49734116 665.8359375 1298 663 1298 c 0
 549 1298 448 1207 398 1109 c 1
 384 1109 l 1
 384 1180 l 2
 384 1236.47882217 340.478822174 1280 284 1280 c 2
 228 1280 l 2
 171.521177826 1280 128 1236.47882217 128 1180 c 2
 128 100 l 2
EndSplineSet
EndChar

StartChar: registered
Encoding: 174 174 277
Width: 1528
VWidth: 0
Flags: W
LayerCount: 2
Fore
SplineSet
764 1260 m 0
 1053 1260 1286 1008 1286 696 c 0
 1286 384 1053 133 764 133 c 0
 475 133 242 384 242 696 c 0
 242 1008 475 1260 764 1260 c 0
764 -14 m 0
 1147 -14 1458 305 1458 700 c 0
 1458 1096 1147 1415 764 1415 c 0
 381 1415 70 1096 70 700 c 0
 70 305 381 -14 764 -14 c 0
901 669 m 1
 961 703 1026 758 1026 893 c 0
 1026 1044 967 1167 756 1167 c 2
 616 1167 l 2
 559.521177826 1167 516 1123.47882217 516 1067 c 2
 516 325 l 2
 516 281.511306926 549.511306926 248 593 248 c 2
 595 248 l 2
 638.488693074 248 672 281.511306926 672 325 c 2
 672 633 l 1
 754 633 l 1
 854.998902837 326.822223683 l 2
 870.657277944 279.353921194 914.015757961 248 964 248 c 2
 965.952467334 248 l 2
 1007.41308789 248 1033.96082285 286.685771288 1019.04793727 325.371542577 c 0
 922.636321455 575.474562362 901 643.457519531 901 669 c 1
743 1049 m 2
 827 1049 866 1001 866 897 c 0
 866 741 809 729 705 729 c 2
 672 729 l 1
 672 1049 l 1
 743 1049 l 2
EndSplineSet
EndChar

StartChar: ring
Encoding: 730 730 278
Width: 640
VWidth: 0
Flags: W
LayerCount: 2
Fore
SplineSet
448 1664 m 0
 448 1600 412 1536 320 1536 c 0
 227 1536 192 1600 192 1664 c 0
 192 1728 228 1792 320 1792 c 0
 412 1792 448 1728 448 1664 c 0
64 1664 m 0
 64 1536 146 1408 320 1408 c 0
 494 1408 576 1536 576 1664 c 0
 576 1792 494 1920 320 1920 c 0
 146 1920 64 1792 64 1664 c 0
EndSplineSet
EndChar

StartChar: s
Encoding: 115 115 279
Width: 916
VWidth: 0
Flags: WO
LayerCount: 2
Fore
SplineSet
156 151 m 0
 212 66 307 -18 468 -18 c 0
 724 -18 852 128 852 320 c 0
 852 456 781 563 660 660 c 1
 404 852 l 2
 376 873 340 909 340 960 c 0
 340 1056 404 1088 468 1088 c 0
 534.160400391 1088 582.991896987 1040.55181104 616.879692036 986.203871316 c 0
 653.991618361 926.685194106 701.122776315 909.707592105 765.917683819 931.305894606 c 2
 764.865096784 930.955032261 l 2
 812.041273091 946.680424364 840.201087039 1009.22822365 820.699473345 1054.97280399 c 0
 769.933710113 1174.05313095 667.747924805 1298 468 1298 c 0
 212 1298 84 1152 84 960 c 0
 84 875 110 775 276 660 c 1
 532 468 l 1
 559 443 596 397 596 320 c 0
 596 224 532 192 468 192 c 0
 402.86328125 192 353.849172592 238.670713425 319.299504681 293.874245318 c 0
 282.066884229 353.364604409 234.915188371 370.30506279 170.104433386 348.701477795 c 2
 163.219022052 346.406340684 l 2
 120.173787133 332.057929044 94.4069435597 275.45371508 111.854049683 233.568542838 c 0
 124.140151978 204.073364258 138.85546875 176.45703125 156 151 c 0
EndSplineSet
EndChar

StartChar: section
Encoding: 167 167 284
Width: 960
VWidth: 0
Flags: W
LayerCount: 2
Fore
SplineSet
168 152 m 0
 224 67 319 -17 480 -17 c 0
 736 -17 864 129 864 321 c 0
 864 428 806 517 706 596 c 1
 811 656 864 758 864 882 c 0
 864 1017 808 1148 416 1364 c 1
 388 1385 352 1421 352 1472 c 0
 352 1568 416 1600 480 1600 c 0
 546.828125 1600 595.075450897 1552.51573563 628.721849374 1498.14189804 c 0
 665.234734298 1439.13571122 713.2455108 1421.7485036 777.415065809 1443.13835527 c 2
 777.165895564 1443.05529852 l 2
 824.078865941 1458.69295531 852.366791968 1521.54326101 832.964256719 1567.02847537 c 0
 782.175674438 1686.09175873 678.93359375 1810 480 1810 c 0
 224 1810 96 1664 96 1472 c 0
 96 1402 121 1320 282 1226 c 1
 157 1170 96 1060 96 925 c 0
 96 840 115 730 288 625 c 2
 544 469 l 2
 575 450 608 398 608 321 c 0
 608 225 544 193 480 193 c 0
 415.562988281 193 365.953493834 239.600768566 331.171516657 294.750113845 c 0
 293.305158008 354.789969456 247.003667564 371.334555855 181.588918734 349.529639578 c 2
 175.028552534 347.342850845 l 2
 132.109212126 333.036404042 106.28924535 276.260935165 123.715587616 234.510883711 c 0
 136.02954483 205.009090424 150.791015625 177.552734375 168 152 c 0
512 754 m 1
 416 817 l 2
 387 836 352 874 352 925 c 0
 352 1002 409 1050 448 1074 c 1
 517 1021 608 943 608 882 c 0
 608 811 553 774 512 754 c 1
EndSplineSet
EndChar

StartChar: semicolon
Encoding: 59 59 285
Width: 384
VWidth: 0
Flags: W
LayerCount: 2
Fore
SplineSet
220 832 m 2
 276.478822174 832 320 875.521177826 320 932 c 2
 320 988 l 2
 320 1044.47882217 276.478822174 1088 220 1088 c 2
 164 1088 l 2
 107.521177826 1088 64 1044.47882217 64 988 c 2
 64 932 l 2
 64 875.521177826 107.521177826 832 164 832 c 2
 220 832 l 2
192 256 m 1
 192 221.349121094 192 164.166899204 133.559329137 139.698031006 c 0
 91.0930836459 121.91758892 80.8472496204 94.3055007592 101.436208443 53.1275831147 c 2
 102.650858121 50.6982837575 l 2
 117.095413425 21.8091731509 166.974563193 -0.519949274513 198.143310547 7.94970703125 c 0
 306.895050853 37.5014196038 318.590642066 152.933118648 319.848432087 411.990369433 c 0
 320.121474962 468.226891538 276.560380333 512 220.323195385 512 c 2
 164 512 l 2
 107.521177826 512 64 468.478822174 64 412 c 2
 64 356 l 2
 64 299.521177826 107.521177826 256 164 256 c 2
 192 256 l 1
EndSplineSet
EndChar

StartChar: seven
Encoding: 55 55 286
Width: 845
VWidth: 0
Flags: W
LayerCount: 2
Fore
SplineSet
537 1579 m 1
 229.338469952 97.9098904095 l 2
 218.543136781 45.9408932238 255.921606215 0 309 0 c 2
 355 0 l 2
 413.960454385 0 462.867436362 40.2783781867 474.170378825 98.1452830028 c 2
 769.401920811 1609.62210378 l 2
 775.837999613 1642.57245814 781 1695.92696078 781 1729.5 c 2
 781 1731.5 l 2
 781 1765.66968742 754.669687415 1792 720.5 1792 c 2
 164 1792 l 2
 107.521177826 1792 64 1748.47882217 64 1692 c 2
 64 1679 l 2
 64 1622.52117783 107.521177826 1579 164 1579 c 2
 537 1579 l 1
EndSplineSet
EndChar

StartChar: six
Encoding: 54 54 287
Width: 1152
VWidth: 0
Flags: W
LayerCount: 2
Fore
SplineSet
1024 576 m 0
 1024 832 960 1088 640 1088 c 0
 485 1088 414 1012 384 960 c 1
 384 1216 l 2
 384 1472 448 1600 576 1600 c 0
 680.998291016 1600 741.026890397 1558.88485336 760.720003916 1443.70020794 c 0
 771.883613574 1378.40446793 812.669423772 1344 878.912610919 1344 c 2
 930.833231055 1344 l 2
 980.664573899 1344 1024.29096489 1394.40573957 1017.14283021 1443.72172988 c 0
 980.797041893 1694.47645494 803.71875 1810 576 1810 c 0
 256 1810 128 1536 128 1152 c 2
 128 576 l 2
 128 192 320 -18 576 -18 c 0
 896 -18 1024 256 1024 576 c 0
576 896 m 0
 768 896 768 704 768 512 c 0
 768 320 704 192 576 192 c 0
 448 192 384 320 384 512 c 2
 384 768 l 1
 412 820 473 896 576 896 c 0
EndSplineSet
EndChar

StartChar: slash
Encoding: 47 47 288
Width: 832
VWidth: 0
Flags: W
LayerCount: 2
Fore
SplineSet
156 0 m 2
 216.153606401 0 268.193362248 37.9349047705 286.600918041 95.2028561285 c 2
 801.399081959 1696.79714387 l 2
 816.998810757 1745.32963347 782.97797647 1792 732 1792 c 2
 675 1792 l 2
 614.850963338 1792 562.824432978 1754.05458069 544.447245431 1696.78167619 c 2
 30.5527545691 95.218323805 l 2
 14.974736934 46.6690931925 49.0127228957 0 100 0 c 2
 156 0 l 2
EndSplineSet
EndChar

StartChar: sterling
Encoding: 163 163 290
Width: 896
VWidth: 0
Flags: W
LayerCount: 2
Fore
SplineSet
128 768 m 1
 128 191 l 1
 56.524444479 155.820625017 l 2
 21.8903311958 138.774147385 -4.4818641639e-15 103.601867864 -1.15729122519e-14 65 c 2
 1.15729122519e-14 63 l 2
 5.03666772081e-15 27.4183420304 27.4183420304 0 63 0 c 2
 737 0 l 2
 790.654881065 0 832 41.3451189347 832 95 c 2
 832 97 l 2
 832 150.654881065 790.654881065 192 737 192 c 2
 384 192 l 1
 384 768 l 1
 545 768 l 2
 598.654881065 768 640 809.345118935 640 863 c 2
 640 865 l 2
 640 918.654881065 598.654881065 960 545 960 c 2
 384 960 l 1
 384 1152 l 2
 384 1408 384 1600 512 1600 c 0
 599.312011719 1600 627.097544193 1514.70832825 635.919466371 1438.87037206 c 0
 642.845507538 1379.33042194 682.52401188 1344 741.955352377 1344 c 2
 740.081869983 1344 l 2
 791.57330654 1344 833.162491027 1387.54833179 830.793948395 1438.98526448 c 0
 823.799138427 1590.88946277 779.717041016 1810 512 1810 c 0
 128 1810 128 1408 128 1152 c 2
 128 960 l 1
 95 960 l 2
 41.3451189347 960 -7.59497513456e-15 918.654881065 -1.74512168878e-14 865 c 2
 1.74512168878e-14 863 l 2
 7.59497513456e-15 809.345118935 41.3451189347 768 95 768 c 2
 128 768 l 1
EndSplineSet
EndChar

StartChar: t
Encoding: 116 116 291
Width: 669
VWidth: 0
Flags: W
LayerCount: 2
Fore
SplineSet
147 1280 m 2
 93.3451189347 1280 52 1238.65488107 52 1185 c 2
 52 1183 l 2
 52 1129.34511893 93.3451189347 1088 147 1088 c 2
 180 1088 l 1
 180 381 l 2
 180 208 170 -18 470 -18 c 0
 497.28125 -18 521.332176208 -17.0309028625 550.231111795 -14.5419131443 c 0
 593.91117924 -10.7798632086 628 26.3711390771 628 70.2129149507 c 2
 628 159.10656177 l 2
 628 182.413648092 609.30609212 198.840640526 586.192403695 195.8443628 c 0
 568.69813633 193.576542854 552.668945312 192 542 192 c 0
 445 192 436 255 436 341 c 2
 436 1088 l 1
 533 1088 l 2
 586.654881065 1088 628 1129.34511893 628 1183 c 2
 628 1185 l 2
 628 1238.65488107 586.654881065 1280 533 1280 c 2
 436 1280 l 1
 436 1628 l 2
 436 1684.47882217 392.478822174 1728 336 1728 c 2
 280 1728 l 2
 223.521177826 1728 180 1684.47882217 180 1628 c 2
 180 1280 l 1
 147 1280 l 2
EndSplineSet
EndChar

StartChar: thorn
Encoding: 254 254 294
Width: 838
VWidth: 0
Flags: W
LayerCount: 2
Fore
SplineSet
191 -340 m 2
 247.478822174 -340 291 -296.478822174 291 -240 c 2
 291 109 l 1
 350 47 440 -14 526 -14 c 0
 745 -14 770 293 770 498 c 0
 770 963 731 1153 520 1153 c 0
 475 1153 408 1149 291 1024 c 1
 291 1418 l 2
 291 1474.47882217 247.478822174 1518 191 1518 c 2
 172 1518 l 2
 115.521177826 1518 72 1474.47882217 72 1418 c 2
 72 -240 l 2
 72 -296.478822174 115.521177826 -340 172 -340 c 2
 191 -340 l 2
440 979 m 0
 539 979 545 865 545 704 c 0
 545 316 545 164 446 164 c 0
 410 164 358 184 291 223 c 1
 291 922 l 1
 338 950 384 979 440 979 c 0
EndSplineSet
EndChar

StartChar: three
Encoding: 51 51 295
Width: 1088
VWidth: 0
Flags: W
LayerCount: 2
Fore
SplineSet
992 512 m 0
 992 820 839 925 736 960 c 1
 839 992 992 1088 992 1344 c 0
 992 1600 864 1810 544 1810 c 0
 224 1810 96 1600 96 1344 c 2
 96 1311 l 2
 96 1293.57389565 109.573895647 1280 127 1280 c 2
 246.518032544 1280 l 2
 308.002234736 1280 350.44308956 1318.72233781 356.065124512 1379.94896472 c 0
 371.980041504 1553.2699585 434.625 1600 544 1600 c 0
 672 1600 736 1536 736 1344 c 0
 736 1190.109375 694.884853363 1118.44904327 579.700207938 1096.06465267 c 0
 513.143835041 1083.13043004 480 1042.92553726 480 975.124026296 c 2
 480 954.797368486 l 2
 480 877.321895487 505.44169488 842.055384406 578.962408625 817.618658625 c 0
 694.709335327 779.146835327 736 666.21875 736 512 c 0
 736 256 672 192 544 192 c 0
 434.625 192 371.980041504 238.730041504 356.065124512 412.051035285 c 0
 350.44308956 473.27766219 308.002234736 512 246.518032544 512 c 2
 127 512 l 2
 109.573895647 512 96 498.426104353 96 481 c 2
 96 448 l 2
 96 192 224 -18 544 -18 c 0
 864 -18 992 192 992 512 c 0
EndSplineSet
EndChar

StartChar: threesuperior
Encoding: 179 179 297
Width: 768
VWidth: 0
Flags: W
LayerCount: 2
Fore
SplineSet
640 896 m 0
 640 1049 525 1084 448 1088 c 1
 525 1092 640 1127 640 1280 c 0
 640 1408 576 1536 384 1536 c 0
 240.046875 1536 168.046882629 1464.04686737 141.026381494 1374.0878849 c 0
 128.497718859 1332.37638086 167.453742501 1280 207.765703893 1280 c 2
 239.788435912 1280 l 2
 286.812389056 1280 315.566630805 1304.15141448 323.687394194 1350.46885581 c 0
 329.547134399 1383.8903656 344.71875 1408 384 1408 c 0
 448 1408 448 1344 448 1280 c 0
 448 1228.84375 448 1177.6875 382.631856486 1159.21532176 c 0
 337.237567017 1146.38749216 320 1123.60377698 320 1078.51638227 c 2
 320 1099.56819276 l 2
 320 1052.98892413 337.807932123 1029.45133016 382.631856486 1016.78467824 c 0
 448 998.3125 448 947.15625 448 896 c 0
 448 832 448 768 384 768 c 0
 344.71875 768 329.547134399 792.109634399 323.687394194 825.531144194 c 0
 315.508060352 872.182646917 287.151546118 896 240.778026402 896 c 2
 211.006204623 896 l 2
 169.319180701 896 129.03434629 841.837032821 141.026381494 801.912115099 c 0
 168.046882629 711.953132629 240.046875 640 384 640 c 0
 576 640 640 768 640 896 c 0
EndSplineSet
EndChar

StartChar: tilde
Encoding: 732 732 298
Width: 960
VWidth: 0
Flags: W
LayerCount: 2
Fore
SplineSet
127 1486 m 0
 127 1482.8828125 127 1480.16223145 127.088306904 1477.92656374 c 0
 127.189157158 1475.37333577 130.6983672 1472 133.25358614 1472 c 2
 229.519373251 1472 l 2
 261.789334839 1472 275.4067203 1481.52264691 286.480609505 1511.83303125 c 0
 293.790220261 1531.8401947 308.262695312 1539 329 1539 c 0
 393 1539 500 1452 613 1452 c 0
 809 1452 833 1656 833 1714 c 0
 833 1717.08984375 832.805160522 1719.79000854 832.587488294 1722.01449102 c 0
 832.239701047 1725.56867265 829.558848581 1728 825.987691487 1728 c 2
 734.417437884 1728 l 2
 699.048862404 1728 685.989722923 1719.30446637 672.349867873 1686.67180657 c 0
 664.043048859 1666.79816437 648.404296875 1659 628 1659 c 0
 564 1659 450 1745 347 1745 c 0
 151 1745 127 1545 127 1486 c 0
EndSplineSet
EndChar

StartChar: trademark
Encoding: 8482 8482 299
Width: 2204
VWidth: 0
Flags: W
LayerCount: 2
Fore
SplineSet
152 1440 m 2
 152 1397.07609515 185.076095148 1364 228 1364 c 2
 315 1364 l 1
 315 770 l 2
 315 722.557789374 351.557789374 686 399 686 c 2
 401 686 l 2
 448.442210626 686 485 722.557789374 485 770 c 2
 485 1364 l 1
 573 1364 l 2
 615.923904852 1364 649 1397.07609515 649 1440 c 2
 649 1442 l 2
 649 1484.92390485 615.923904852 1518 573 1518 c 2
 228 1518 l 2
 185.076095148 1518 152 1484.92390485 152 1442 c 2
 152 1440 l 2
1276 765 m 2
 1276 720.381730483 1310.38173048 686 1355 686 c 2
 1357 686 l 2
 1401.61826952 686 1436 720.381730483 1436 765 c 2
 1436 1418 l 2
 1436 1474.47882217 1392.47882217 1518 1336 1518 c 2
 1294 1518 l 2
 1234.61716125 1518 1184.66302965 1478.47058345 1171.01225278 1420.67804216 c 2
 1087 1065 l 1
 1005.37594224 1420.53555926 l 2
 992.10326299 1478.34828717 942.316738978 1518 883 1518 c 2
 841 1518 l 2
 784.521177826 1518 741 1474.47882217 741 1418 c 2
 741 764 l 2
 741 719.946518704 774.946518704 686 819 686 c 2
 821 686 l 2
 865.053481296 686 899 719.946518704 899 764 c 2
 899 1241 l 1
 1023.8975051 735.028355237 l 2
 1031.096939 705.862765376 1056.45897005 686 1086.5 686 c 2
 1088.5 686 l 2
 1118.54102995 686 1143.903061 705.862765376 1151.1024949 735.028355237 c 2
 1276 1241 l 1
 1276 765 l 2
EndSplineSet
EndChar

StartChar: two
Encoding: 50 50 300
Width: 1089
VWidth: 0
Flags: W
LayerCount: 2
Fore
SplineSet
353 1280 m 2
 353 1472 417 1600 545 1600 c 0
 673 1600 737 1472 737 1344 c 0
 737 1253 726 1154 545 896 c 2
 153.432049275 337.863054646 l 2
 118.119867589 287.529432644 96 217.485150072 96 156 c 2
 96 100 l 2
 96 43.521177826 139.521177826 0 196 0 c 2
 893 0 l 2
 949.478822174 0 993 43.521177826 993 100 c 2
 993 156 l 2
 993 212.478822174 949.478822174 256 893 256 c 2
 353 256 l 1
 801 832 l 1
 931 1018 993 1151 993 1344 c 0
 993 1600 865 1810 545 1810 c 0
 225 1810 97 1600 97 1280 c 2
 97 1247 l 2
 97 1229.57389565 110.573895647 1216 128 1216 c 2
 322 1216 l 2
 339.426104353 1216 353 1229.57389565 353 1247 c 2
 353 1280 l 2
EndSplineSet
EndChar

StartChar: twosuperior
Encoding: 178 178 301
Width: 640
VWidth: 0
Flags: W
LayerCount: 2
Fore
SplineSet
320 1344 m 0
 384 1344 384 1280 384 1216 c 0
 384 1152 352 1088 256 960 c 2
 101.8 754.4 l 2
 78.4878938004 723.317191734 64 679.853510333 64 641 c 2
 64 639 l 2
 64 603.41834203 91.4183420304 576 127 576 c 2
 513 576 l 2
 548.58165797 576 576 603.41834203 576 639 c 2
 576 641 l 2
 576 676.58165797 548.58165797 704 513 704 c 2
 256 704 l 1
 448 960 576 1088 576 1216 c 0
 576 1344 512 1472 320 1472 c 0
 176.046875 1472 104.046882629 1400.04686737 77.0263814935 1310.0878849 c 0
 64.4977188585 1268.37638086 103.453742501 1216 143.765703893 1216 c 2
 175.788435912 1216 l 2
 222.812389056 1216 251.566630805 1240.15141448 259.687394194 1286.46885581 c 0
 265.547134399 1319.8903656 280.71875 1344 320 1344 c 0
EndSplineSet
EndChar

StartChar: u
Encoding: 117 117 302
Width: 1024
VWidth: 0
Flags: HW
LayerCount: 2
Fore
SplineSet
640 1180 m 2
 640 267 l 1
 592 227 536 177 472 177 c 0
 423 177 384 211 384 267 c 2
 384 1180 l 2
 384 1248.5413742 319.979123464 1282.82883931 255.968687749 1282.82883931 c 0
 191.979126868 1282.82883931 128 1248.56347656 128 1180 c 2
 128 227 l 2
 128 66.4025784673 246.63797255 -16.265625 373.125 -16.265625 c 0
 477.478372556 -16.265625 587.174162723 34.3581811235 640 138 c 1
 640 100 l 2
 640 31.4586258017 704.020876536 -2.82883930881 768.031312251 -2.82883930881 c 0
 832.020873132 -2.82883930881 896 31.4362660595 896 100 c 2
 896 1180 l 2
 896 1248.5413742 831.979123464 1282.82883931 767.968687749 1282.82883931 c 0
 703.979126868 1282.82883931 640 1248.56373394 640 1180 c 2
EndSplineSet
EndChar

StartChar: underscore
Encoding: 95 95 309
Width: 768
VWidth: 0
Flags: W
LayerCount: 2
Fore
SplineSet
673 0 m 2
 726.654881065 0 768 41.3451189347 768 95 c 2
 768 97 l 2
 768 150.654881065 726.654881065 192 673 192 c 2
 95 192 l 2
 41.3451189347 192 -7.59497513456e-15 150.654881065 -1.74512168878e-14 97 c 2
 1.74512168878e-14 95 l 2
 7.59497513456e-15 41.3451189347 41.3451189347 0 95 0 c 2
 673 0 l 2
EndSplineSet
EndChar

StartChar: uni00AD
Encoding: 173 173 310
Width: 768
VWidth: 0
Flags: W
LayerCount: 2
Fore
SplineSet
545 448 m 2
 598.654881065 448 640 489.345118935 640 543 c 2
 640 545 l 2
 640 598.654881065 598.654881065 640 545 640 c 2
 223 640 l 2
 169.345118935 640 128 598.654881065 128 545 c 2
 128 543 l 2
 128 489.345118935 169.345118935 448 223 448 c 2
 545 448 l 2
EndSplineSet
EndChar

StartChar: uni030F
Encoding: 783 783 347
Width: 640
VWidth: 0
Flags: W
LayerCount: 2
Fore
SplineSet
623 1408 m 2
 656.126657748 1408 679.327007631 1437.11851216 671.927302151 1469.40813607 c 2
 620.337615633 1694.52676815 l 2
 607.088599978 1752.34065464 557.31257782 1792 498 1792 c 2
 492 1792 l 2
 442.857870917 1792 412.180519842 1745.31735169 431.680229388 1700.20958985 c 2
 533.001455485 1465.8279584 l 2
 548.235948249 1430.58672212 582.606843009 1408 621 1408 c 2
 623 1408 l 2
329 1408 m 2
 360.923850396 1408 382.172858634 1437.4814241 372.077650741 1467.76704778 c 2
 295.622776602 1697.13167019 l 2
 276.570174092 1754.28947772 224.249619283 1792 164 1792 c 2
 108 1792 l 2
 63.2965026924 1792 38.672980894 1745.99052866 63.4700196225 1708.79497057 c 2
 229.053887638 1460.41916854 l 2
 250.689012844 1427.96648073 287.99672336 1408 327 1408 c 2
 329 1408 l 2
EndSplineSet
EndChar

StartChar: uni0311
Encoding: 785 785 348
Width: 768
VWidth: 0
Flags: W
LayerCount: 2
Fore
SplineSet
68.5054242821 1502.88718149 m 0
 63.4978521617 1454.0378433 105.057591339 1408 153.778487906 1408 c 2
 148.772734867 1408 l 2
 213.013782512 1408 251.299700338 1439.65696372 263.36839825 1502.75418025 c 0
 281.96875 1600 332.984375 1600 384 1600 c 0
 435.015625 1600 486.03125 1600 504.63160175 1502.75418025 c 0
 516.792683158 1439.17396701 554.494464972 1408 617.755373928 1408 c 2
 613.83707677 1408 l 2
 662.755131586 1408 704.483050045 1454.22414407 699.494575718 1502.88718149 c 0
 669.857464075 1792 500.4453125 1792 384 1792 c 0
 267.5546875 1792 98.1425359249 1792 68.5054242821 1502.88718149 c 0
EndSplineSet
EndChar

StartChar: uni0326
Encoding: 806 806 349
Width: 330
VWidth: 0
Flags: W
LayerCount: 2
Fore
SplineSet
165 -335 m 1
 165 -369.650878906 165 -426.833100796 106.559329137 -451.301968994 c 0
 64.0930836459 -469.08241108 53.8472496204 -496.694499241 74.4362084427 -537.872416885 c 2
 75.6508581212 -540.301716242 l 2
 90.0954134246 -569.190826849 139.974563193 -591.519949275 171.143310547 -583.050292969 c 0
 279.895050853 -553.498580396 291.590642066 -438.066881352 292.848432087 -179.009630567 c 0
 293.121474962 -122.773108462 249.560380333 -79 193.323195385 -79 c 2
 137 -79 l 2
 80.521177826 -79 37 -122.521177826 37 -179 c 2
 37 -235 l 2
 37 -291.478822174 80.521177826 -335 137 -335 c 2
 165 -335 l 1
EndSplineSet
EndChar

StartChar: v
Encoding: 118 118 351
Width: 880
VWidth: 0
Flags: W
LayerCount: 2
Fore
SplineSet
834.193946845 1182.40647539 m 2
 845.70896711 1233.94223042 808.806531212 1280 756 1280 c 2
 700 1280 l 2
 641.356159048 1280 593.201089334 1239.206536 583.560101269 1181.36060762 c 2
 440 320 l 1
 296.439898731 1181.36060762 l 2
 286.798910666 1239.206536 238.643840952 1280 180 1280 c 2
 124 1280 l 2
 71.2206437077 1280 34.3655071553 1233.93107931 45.9512195122 1182.43902439 c 2
 290.048780488 97.5609756098 l 2
 303.059376443 39.7361046993 352.729507317 0 412 0 c 2
 470 0 l 2
 529.254618743 0 578.884959495 39.7648536843 591.806053155 97.59352461 c 2
 834.193946845 1182.40647539 l 2
EndSplineSet
EndChar

StartChar: w
Encoding: 119 119 352
Width: 1315
VWidth: 0
Flags: W
LayerCount: 2
Fore
SplineSet
931 0 m 2
 989.94347576 0 1038.80947184 40.3069514141 1050.0212688 98.1742905916 c 2
 1259.9787312 1181.82570941 l 2
 1270.12049747 1234.17030955 1232.31803248 1280 1179 1280 c 2
 1151 1280 l 2
 1092.60041249 1280 1045.00899533 1238.83323935 1036.59868927 1181.04242197 c 2
 911 318 l 1
 788.998023343 1180.98457018 l 2
 780.83011102 1238.76053823 733.350469371 1280 675 1280 c 2
 641 1280 l 2
 582.691290805 1280 535.306286218 1238.69932988 527.343157835 1180.93693593 c 2
 407 308 l 1
 279.455608882 1181.0503392 l 2
 271.012639857 1238.84305675 223.406180559 1280 165 1280 c 2
 138 1280 l 2
 84.535703355 1280 46.4723716774 1234.24204326 56.2061751872 1181.67129013 c 2
 256.793824813 98.3287098718 l 2
 267.508163979 40.4622367403 316.149972163 0 375 0 c 2
 421 0 l 2
 479.527057957 0 527.410966231 40.974436344 536.458190123 98.7979977435 c 2
 659 882 l 1
 779.760601366 98.8319823198 l 2
 788.675774237 41.0144641425 836.499181925 0 895 0 c 2
 931 0 l 2
EndSplineSet
EndChar

StartChar: x
Encoding: 120 120 353
Width: 914
VWidth: 0
Flags: W
LayerCount: 2
Fore
SplineSet
197 0 m 2
 257.249619283 0 309.570174092 37.7105222769 328.622776602 94.8683298051 c 2
 425 384 l 1
 457 512 l 1
 489 384 l 1
 585.377223398 94.8683298051 l 2
 604.429825908 37.7105222769 656.750380717 0 717 0 c 2
 773 0 l 2
 822.735403979 0 854.332197687 46.6695057827 835.860932365 92.8476690885 c 2
 617 640 l 1
 617 704 l 1
 832.386153395 1188.61884514 l 2
 852.239823979 1233.28960395 821.883994608 1280 773 1280 c 2
 717 1280 l 2
 656.750380717 1280 604.429825908 1242.28947772 585.377223398 1185.13167019 c 2
 489 896 l 1
 457 768 l 1
 425 896 l 1
 328.622776602 1185.13167019 l 2
 309.570174092 1242.28947772 257.249619283 1280 197 1280 c 2
 141 1280 l 2
 92.1160053924 1280 61.7601760208 1233.28960395 81.6138466053 1188.61884514 c 2
 297 704 l 1
 297 640 l 1
 78.1390676354 92.8476690885 l 2
 59.6678023131 46.6695057827 91.2645960214 0 141 0 c 2
 197 0 l 2
EndSplineSet
EndChar

StartChar: y
Encoding: 121 121 354
Width: 895
VWidth: 0
Flags: W
LayerCount: 2
Fore
SplineSet
318.88854382 1181.61300899 m 2
 308.367697073 1239.4776661 259.81332127 1280 201 1280 c 2
 145 1280 l 2
 92.4784794904 1280 55.9481891537 1233.80104797 68.0592665798 1182.694963 c 2
 318 128 l 1
 325 103 326 79 326 56 c 0
 326 -25.466796875 291.150097847 -90.394657135 203.291611739 -116.085228527 c 0
 134.435539539 -136.219331867 109 -170.157544215 109 -238.656900773 c 2
 109 -228.556321895 l 2
 109 -278.797924098 153.8464884 -320.489278844 203.954695484 -316.830566669 c 0
 401.53096813 -302.404292881 517.025146484 -236.065673828 557 -64 c 2
 853.837947269 1182.71937853 l 2
 865.998577825 1233.79402687 829.502386975 1280 777 1280 c 2
 721 1280 l 2
 662.18667873 1280 613.632302927 1239.4776661 603.11145618 1181.61300899 c 2
 493 576 l 1
 462 384 l 1
 429 576 l 1
 318.88854382 1181.61300899 l 2
EndSplineSet
EndChar

StartChar: yen
Encoding: 165 165 357
Width: 1024
VWidth: 0
Flags: W
LayerCount: 2
Fore
SplineSet
640 256 m 1
 749 256 l 2
 795.877422404 256 832 292.122577596 832 339 c 2
 832 341 l 2
 832 387.877422404 795.877422404 424 749 424 c 2
 640 424 l 1
 640 553 l 1
 750 553 l 2
 796.312634183 553 832 588.687365817 832 635 c 2
 832 637 l 2
 832 683.312634183 796.312634183 719 750 719 c 2
 679 719 l 1
 947.490617575 1695.57773782 l 2
 961.226409632 1745.53877131 925.814832339 1792 874 1792 c 2
 814 1792 l 2
 754.842502938 1792 705.453865134 1752.06162716 693.075388991 1694.21369905 c 2
 512 848 l 1
 329.122585317 1694.25627187 l 2
 316.622361662 1752.10044407 267.17942083 1792 208 1792 c 2
 148 1792 l 2
 96.1030800027 1792 60.6713944646 1745.59588307 74.3421686593 1695.5319216 c 2
 341 719 l 1
 274 719 l 2
 227.687365817 719 192 683.312634183 192 637 c 2
 192 635 l 2
 192 588.687365817 227.687365817 553 274 553 c 2
 384 553 l 1
 384 424 l 1
 275 424 l 2
 228.122577596 424 192 387.877422404 192 341 c 2
 192 339 l 2
 192 292.122577596 228.122577596 256 275 256 c 2
 384 256 l 1
 384 100 l 2
 384 43.521177826 427.521177826 0 484 0 c 2
 540 0 l 2
 596.478822174 0 640 43.521177826 640 100 c 2
 640 256 l 1
EndSplineSet
EndChar

StartChar: z
Encoding: 122 122 358
Width: 830
VWidth: 0
Flags: W
LayerCount: 2
Fore
SplineSet
64 95 m 2
 64 41.3451189347 105.345118935 0 159 0 c 2
 673 0 l 2
 726.654881065 0 768 41.3451189347 768 95 c 2
 768 97 l 2
 768 150.654881065 726.654881065 192 673 192 c 2
 320 192 l 1
 725.514708428 1003.02941686 l 2
 751.075080668 1054.15016134 768 1125.84527014 768 1183 c 2
 768 1185 l 2
 768 1238.65488107 726.654881065 1280 673 1280 c 2
 223 1280 l 2
 169.345118935 1280 128 1238.65488107 128 1185 c 2
 128 1183 l 2
 128 1129.34511893 169.345118935 1088 223 1088 c 2
 512 1088 l 1
 106.485291572 276.970583145 l 2
 80.9249193317 225.849838663 64 154.154729861 64 97 c 2
 64 95 l 2
EndSplineSet
EndChar

StartChar: zero
Encoding: 48 48 362
Width: 1152
VWidth: 0
Flags: W
LayerCount: 2
Fore
SplineSet
1024 512 m 2
 1024 1280 l 2
 1024 1763 704 1810 576 1810 c 0
 448 1810 128 1763 128 1280 c 2
 128 512 l 2
 128 133 346 -18 576 -18 c 0
 806 -18 1024 133 1024 512 c 2
384 512 m 2
 384 1280 l 2
 384 1396 395 1600 576 1600 c 0
 757 1600 768 1396 768 1280 c 2
 768 512 l 2
 768 400 745 192 576 192 c 0
 407 192 384 400 384 512 c 2
EndSplineSet
EndChar
